<svg width="346" height="71" viewBox="0 0 346 71" fill="none" xmlns="http://www.w3.org/2000/svg">
<g clip-path="url(#clip0_2335_104)">
<path d="M0.15 20.69L35.36 0L70.25 20.69V56.2L60.84 50.49V25.79L35.51 11.58L0 31.96L0.15 20.69Z" fill="#EE2938"/>
<path d="M0 44.0099V55.1199L35.2 35.0499L41.07 37.8299V44.3099L5.25 64.3899L15.13 70.2499L35.2 58.8299L54.66 70.2499L63.92 65.3099L43.85 53.2699L50.64 49.8699L50.34 32.2699L35.51 23.3199L0 44.0099Z" fill="#EE2938"/>
<path d="M95.47 55.76C94.8275 55.7712 94.2037 55.5431 93.72 55.12C93.4955 54.933 93.3147 54.6992 93.1904 54.4348C93.066 54.1705 93.001 53.8821 93 53.59V20.89C93.0052 20.3161 93.2355 19.7672 93.6413 19.3614C94.0472 18.9555 94.5961 18.7252 95.17 18.72H109.77C111.641 18.6927 113.486 19.1583 115.12 20.07C116.693 20.9499 117.999 22.2387 118.9 23.8C119.85 25.4389 120.334 27.3061 120.3 29.2C120.31 30.6266 120.024 32.0398 119.46 33.35C118.912 34.6126 118.121 35.7545 117.13 36.71C116.162 37.6477 115.007 38.3702 113.74 38.83L112.58 38.03C113.752 38.269 114.856 38.7679 115.81 39.49C116.773 40.2286 117.564 41.1667 118.13 42.24C118.767 43.4392 119.11 44.7724 119.13 46.13C119.2 47.43 119.28 48.48 119.39 49.25C119.454 49.8811 119.616 50.4985 119.87 51.08C120.07 51.4911 120.382 51.8376 120.77 52.08C121.252 52.3619 121.609 52.8156 121.77 53.35C121.85 53.6093 121.866 53.8844 121.816 54.1511C121.765 54.4179 121.65 54.6681 121.48 54.88C121.282 55.2254 120.96 55.4828 120.58 55.6C120.206 55.7227 119.809 55.7569 119.42 55.7C119.048 55.6569 118.688 55.5414 118.36 55.36C117.758 54.9738 117.216 54.5022 116.75 53.96C116.116 53.1761 115.665 52.2605 115.43 51.28C115.044 49.7239 114.873 48.1225 114.92 46.52C114.95 45.5668 114.762 44.6193 114.37 43.75C114.042 43.0453 113.552 42.4284 112.94 41.95C112.346 41.4879 111.666 41.148 110.94 40.95C110.195 40.7583 109.429 40.6609 108.66 40.66H96.79L97.43 39.76V53.59C97.4437 54.1473 97.2555 54.6907 96.9 55.12C96.7273 55.3299 96.5082 55.4969 96.2601 55.6079C96.012 55.7189 95.7416 55.771 95.47 55.76ZM96.79 36.92H109.79C110.832 36.8449 111.833 36.4814 112.68 35.87C113.619 35.1825 114.372 34.2717 114.87 33.22C115.459 31.999 115.751 30.6555 115.72 29.3C115.743 28.4544 115.599 27.6126 115.295 26.8231C114.991 26.0336 114.534 25.312 113.95 24.7C113.384 24.0991 112.698 23.6239 111.937 23.3052C111.175 22.9865 110.355 22.8314 109.53 22.85H97L97.43 21.79V37.88L96.79 36.92Z" fill="#EE2938"/>
<path d="M140.44 56.29C137.839 56.3531 135.266 55.7324 132.98 54.49C130.902 53.32 129.196 51.5868 128.06 49.49C126.863 47.2568 126.261 44.7533 126.31 42.22C126.23 39.4858 126.86 36.7776 128.14 34.36C129.243 32.2916 130.888 30.5629 132.9 29.36C134.779 28.2337 136.929 27.6392 139.12 27.64C140.733 27.6387 142.331 27.9441 143.83 28.54C145.329 29.1396 146.69 30.0379 147.83 31.18C149.076 32.4337 150.063 33.9206 150.734 35.5559C151.404 37.1911 151.746 38.9425 151.74 40.71C151.745 40.9755 151.692 41.2388 151.583 41.481C151.474 41.7231 151.312 41.938 151.11 42.11C150.703 42.4727 150.175 42.669 149.63 42.66H128.73L127.73 39.01H148.04L147.2 39.75V38.67C147.124 37.3115 146.632 36.0092 145.79 34.94C144.988 33.9174 143.961 33.0928 142.79 32.53C141.625 31.9743 140.351 31.6873 139.06 31.69C137.984 31.6913 136.916 31.8878 135.91 32.27C134.861 32.6671 133.907 33.2803 133.11 34.07C132.226 34.9727 131.544 36.0534 131.11 37.24C130.56 38.7477 130.298 40.3456 130.34 41.95C130.298 43.8252 130.724 45.6812 131.58 47.35C132.398 48.8652 133.615 50.1276 135.1 51C136.668 51.923 138.461 52.3905 140.28 52.35C141.375 52.3697 142.466 52.2109 143.51 51.88C144.347 51.5998 145.139 51.1989 145.86 50.69C146.464 50.2599 147.023 49.7708 147.53 49.23C147.929 48.9305 148.411 48.7627 148.91 48.75C149.387 48.7526 149.843 48.9431 150.18 49.2801C150.517 49.6171 150.707 50.0734 150.71 50.55C150.698 50.8691 150.615 51.1815 150.468 51.465C150.321 51.7485 150.114 51.996 149.86 52.19C148.701 53.3881 147.327 54.3581 145.81 55.05C144.139 55.8692 142.301 56.2935 140.44 56.29Z" fill="#EE2938"/>
<path d="M171.71 27.72C173.705 27.6063 175.685 28.1242 177.37 29.2C178.749 30.1878 179.779 31.5886 180.31 33.2C180.914 35.0076 181.208 36.9043 181.18 38.81V53.59C181.186 53.873 181.136 54.1544 181.031 54.4173C180.926 54.6802 180.769 54.9192 180.57 55.12C180.373 55.3171 180.139 55.4735 179.882 55.5802C179.624 55.6869 179.348 55.7419 179.07 55.7419C178.791 55.7419 178.515 55.6869 178.258 55.5802C178 55.4735 177.767 55.3171 177.57 55.12C177.183 54.7058 176.975 54.1563 176.99 53.59V38.88C177.008 37.6365 176.802 36.3999 176.38 35.23C176.002 34.1699 175.303 33.254 174.38 32.61C173.24 31.899 171.912 31.5503 170.57 31.61C169.151 31.6022 167.753 31.9457 166.5 32.61C165.295 33.2164 164.263 34.1177 163.5 35.23C162.765 36.3044 162.378 37.5784 162.39 38.88V53.59C162.394 53.8726 162.342 54.1532 162.237 54.4157C162.132 54.6782 161.977 54.9176 161.78 55.12C161.584 55.3195 161.351 55.4781 161.093 55.5863C160.836 55.6945 160.559 55.7503 160.28 55.7503C160 55.7503 159.724 55.6945 159.466 55.5863C159.209 55.4781 158.975 55.3195 158.78 55.12C158.583 54.9176 158.427 54.6782 158.322 54.4157C158.218 54.1532 158.166 53.8726 158.17 53.59V30.59C158.162 30.3024 158.212 30.0161 158.317 29.7481C158.421 29.4802 158.579 29.236 158.78 29.03C158.978 28.8333 159.214 28.6787 159.473 28.5756C159.733 28.4725 160.011 28.423 160.29 28.43C160.573 28.4159 160.855 28.4621 161.119 28.5656C161.383 28.669 161.622 28.8273 161.82 29.03C162.215 29.4512 162.428 30.0123 162.41 30.59V34.3L161.35 35.46C161.56 34.4609 161.972 33.515 162.56 32.68C163.219 31.7259 164.022 30.8793 164.94 30.17C165.907 29.4262 166.978 28.8297 168.12 28.4C169.266 27.9595 170.482 27.7292 171.71 27.72Z" fill="#EE2938"/>
<path d="M211.55 16.61C211.829 16.603 212.107 16.6525 212.366 16.7556C212.626 16.8587 212.862 17.0133 213.06 17.21C213.262 17.4175 213.42 17.6634 213.524 17.9331C213.629 18.2028 213.679 18.4908 213.67 18.78V53.59C213.674 53.8726 213.622 54.1532 213.517 54.4157C213.413 54.6782 213.257 54.9176 213.06 55.12C212.868 55.3273 212.634 55.4916 212.374 55.6019C212.113 55.7122 211.833 55.7661 211.55 55.76C211.26 55.7694 210.971 55.7172 210.702 55.6069C210.433 55.4966 210.19 55.3307 209.99 55.12C209.791 54.9192 209.634 54.6802 209.529 54.4173C209.424 54.1543 209.373 53.8729 209.38 53.59V48.59L210.38 48.28C210.347 49.2009 210.082 50.0986 209.61 50.89C209.045 51.8915 208.311 52.788 207.44 53.54C206.477 54.3845 205.378 55.0607 204.19 55.54C202.92 56.056 201.561 56.3177 200.19 56.31C197.902 56.34 195.656 55.6967 193.73 54.46C191.803 53.1933 190.244 51.4411 189.21 49.38C188.062 47.092 187.485 44.5596 187.53 42C187.482 39.4347 188.055 36.8959 189.2 34.6C190.221 32.5447 191.771 30.7983 193.69 29.54C195.594 28.3246 197.812 27.692 200.07 27.72C202.841 27.7022 205.527 28.6778 207.64 30.47C208.573 31.2535 209.353 32.2028 209.94 33.27C210.461 34.2108 210.742 35.265 210.76 36.34L209.38 36V18.78C209.374 18.4956 209.425 18.2127 209.529 17.9482C209.634 17.6838 209.791 17.4429 209.99 17.24C210.192 17.0326 210.435 16.8695 210.704 16.7611C210.973 16.6526 211.261 16.6012 211.55 16.61ZM200.65 52.37C202.307 52.3976 203.932 51.9197 205.31 51C206.678 50.0714 207.772 48.7939 208.48 47.3C209.251 45.6341 209.65 43.8205 209.65 41.985C209.65 40.1495 209.251 38.3359 208.48 36.67C207.767 35.1878 206.673 33.9214 205.31 33C203.919 32.1146 202.304 31.6443 200.655 31.6443C199.006 31.6443 197.391 32.1146 196 33C194.621 33.928 193.516 35.2092 192.8 36.71C192.036 38.3688 191.64 40.1735 191.64 42C191.64 43.8264 192.036 45.6312 192.8 47.29C193.523 48.7857 194.627 50.0651 196 51C197.373 51.923 198.996 52.4013 200.65 52.37Z" fill="#EE2938"/>
<path d="M223.61 55.7599C223.329 55.7646 223.05 55.7101 222.792 55.5998C222.533 55.4895 222.301 55.326 222.11 55.1199C221.91 54.9192 221.753 54.6802 221.649 54.4172C221.544 54.1543 221.493 53.8729 221.5 53.5899V30.5899C221.49 30.3021 221.539 30.0151 221.643 29.7468C221.748 29.4785 221.907 29.2346 222.11 29.0299C222.52 28.6568 223.055 28.4501 223.61 28.4501C224.165 28.4501 224.699 28.6568 225.11 29.0299C225.304 29.239 225.456 29.4844 225.555 29.7521C225.655 30.0198 225.701 30.3045 225.69 30.5899V37.5299L225.05 36.4099C225.278 35.2952 225.662 34.218 226.19 33.2099C226.739 32.175 227.444 31.2307 228.28 30.4099C229.12 29.5717 230.106 28.8939 231.19 28.4099C232.329 27.9305 233.554 27.6889 234.79 27.6999C235.539 27.6909 236.278 27.8807 236.93 28.2499C237.229 28.3864 237.482 28.6061 237.659 28.8828C237.837 29.1594 237.931 29.4813 237.93 29.8099C237.954 30.1133 237.915 30.4183 237.815 30.7058C237.715 30.9932 237.557 31.2568 237.35 31.4799C237.001 31.8337 236.527 32.035 236.03 32.0399C235.568 32.0371 235.113 31.9276 234.7 31.7199C234.205 31.4928 233.664 31.3833 233.12 31.3999C232.197 31.4115 231.293 31.6668 230.5 32.1399C229.595 32.6617 228.79 33.3387 228.12 34.1399C227.374 35.0362 226.783 36.05 226.37 37.1399C225.925 38.2771 225.701 39.4888 225.71 40.7099V53.5899C225.717 53.8729 225.666 54.1543 225.561 54.4172C225.456 54.6802 225.299 54.9192 225.1 55.1199C224.91 55.3248 224.679 55.4875 224.423 55.5977C224.166 55.708 223.889 55.7632 223.61 55.7599Z" fill="#EE2938"/>
<path d="M254.2 56.29C251.599 56.354 249.026 55.7333 246.74 54.49C244.659 53.3207 242.95 51.5876 241.81 49.49C240.617 47.2558 240.018 44.7524 240.07 42.22C239.991 39.4872 240.618 36.7801 241.89 34.36C242.996 32.2909 244.645 30.5623 246.66 29.36C248.535 28.2312 250.682 27.6365 252.87 27.64C254.483 27.6387 256.081 27.9441 257.58 28.54C259.081 29.1349 260.443 30.0337 261.58 31.18C262.764 32.3714 263.716 33.7717 264.39 35.31C265.114 37.0187 265.492 38.8543 265.5 40.71C265.506 40.9765 265.451 41.2408 265.34 41.4833C265.229 41.7257 265.065 41.9399 264.86 42.11C264.453 42.4727 263.925 42.669 263.38 42.66H242.5L241.55 39.01H261.87L261.02 39.75V38.67C260.952 37.3115 260.463 36.0078 259.62 34.94C258.814 33.9231 257.788 33.1023 256.619 32.5394C255.449 31.9765 254.168 31.6861 252.87 31.69C251.794 31.6913 250.726 31.8878 249.72 32.27C248.671 32.6671 247.717 33.2803 246.92 34.07C246.036 34.9727 245.354 36.0534 244.92 37.24C244.375 38.7491 244.114 40.346 244.15 41.95C244.111 43.826 244.54 45.6822 245.4 47.35C246.195 48.8592 247.388 50.1216 248.85 51C250.407 51.9241 252.19 52.3984 254 52.37C255.092 52.3902 256.18 52.2315 257.22 51.9C258.059 51.6177 258.854 51.217 259.58 50.71C260.182 50.2773 260.741 49.7884 261.25 49.25C261.645 48.9495 262.124 48.7814 262.62 48.77C263.097 48.7727 263.553 48.9631 263.89 49.3001C264.227 49.6371 264.417 50.0935 264.42 50.57C264.41 50.8895 264.328 51.2027 264.181 51.4865C264.034 51.7703 263.825 52.0175 263.57 52.21C262.424 53.4018 261.068 54.3714 259.57 55.07C257.896 55.8803 256.06 56.2976 254.2 56.29Z" fill="#EE2938"/>
<path d="M294.62 28.14C294.899 28.1346 295.177 28.1857 295.436 28.2904C295.695 28.3952 295.93 28.5513 296.128 28.7494C296.325 28.9475 296.48 29.1835 296.583 29.4431C296.687 29.7027 296.737 29.9806 296.73 30.26V53.59C296.736 53.872 296.685 54.1524 296.583 54.4149C296.48 54.6775 296.326 54.9171 296.13 55.12C295.938 55.3274 295.704 55.4916 295.443 55.6019C295.183 55.7122 294.902 55.7661 294.62 55.76C294.329 55.7734 294.039 55.723 293.769 55.6125C293.5 55.5019 293.258 55.3339 293.06 55.12C292.86 54.9193 292.703 54.6803 292.599 54.4173C292.494 54.1544 292.443 53.873 292.45 53.59V48.59L293.45 48.49C293.422 49.3989 293.149 50.2834 292.66 51.05C292.082 52.0106 291.348 52.8689 290.49 53.59C289.531 54.4301 288.439 55.1059 287.26 55.59C285.99 56.1081 284.631 56.3698 283.26 56.36C280.961 56.3881 278.706 55.7338 276.78 54.48C274.842 53.2132 273.281 51.4481 272.26 49.37C271.123 47.0823 270.553 44.5544 270.6 42C270.545 39.4417 271.115 36.9085 272.26 34.62C273.298 32.5896 274.85 30.8659 276.76 29.62C278.663 28.4036 280.881 27.7709 283.14 27.8C284.583 27.785 286.017 28.0358 287.37 28.54C288.618 28.9953 289.773 29.6729 290.78 30.54C291.701 31.3221 292.464 32.2724 293.03 33.34C293.537 34.2847 293.808 35.338 293.82 36.41L292.45 36V30.26C292.44 29.9796 292.489 29.7003 292.594 29.4401C292.699 29.18 292.858 28.9449 293.06 28.75C293.263 28.5458 293.507 28.3861 293.776 28.2811C294.044 28.1761 294.332 28.128 294.62 28.14ZM283.72 52.37C285.374 52.4053 286.999 51.9266 288.37 51C289.735 50.0528 290.83 48.7676 291.55 47.27C292.335 45.6253 292.731 43.8223 292.71 42C292.737 40.1868 292.34 38.3924 291.55 36.76C290.824 35.2747 289.729 34.0006 288.37 33.06C287 32.1299 285.375 31.6477 283.72 31.68C282.079 31.6462 280.466 32.1061 279.09 33C277.713 33.9187 276.609 35.1895 275.89 36.68C275.083 38.3354 274.682 40.159 274.72 42C274.687 43.8373 275.077 45.6574 275.86 47.32C276.563 48.8027 277.646 50.0725 279 51C280.393 51.9345 282.043 52.4132 283.72 52.37Z" fill="#EE2938"/>
<path d="M317.63 27.9999C319.734 27.9067 321.804 28.5542 323.48 29.8299C325.047 31.1507 326.108 32.9744 326.48 34.9899H325.68L326.05 33.9899C326.56 32.8953 327.301 31.9233 328.22 31.1399C329.278 30.2007 330.476 29.4315 331.77 28.8599C333.083 28.2654 334.508 27.9585 335.95 27.9599C337.899 27.8493 339.831 28.3796 341.45 29.4699C342.792 30.4818 343.796 31.8763 344.33 33.4699C344.941 35.2864 345.238 37.1936 345.21 39.1099V53.5899C345.214 53.8725 345.162 54.1531 345.057 54.4157C344.953 54.6782 344.797 54.9175 344.6 55.1199C344.4 55.3306 344.157 55.4966 343.888 55.6069C343.62 55.7172 343.33 55.7693 343.04 55.7599C342.757 55.766 342.477 55.7122 342.216 55.6018C341.956 55.4915 341.722 55.3273 341.53 55.1199C341.33 54.9192 341.173 54.6802 341.069 54.4172C340.964 54.1543 340.913 53.8729 340.92 53.5899V39.2499C340.935 37.9994 340.739 36.7552 340.34 35.5699C339.969 34.4928 339.269 33.559 338.34 32.8999C337.245 32.1797 335.948 31.8292 334.64 31.8999C333.269 31.8878 331.918 32.2324 330.72 32.8999C329.559 33.5335 328.578 34.4524 327.87 35.5699C327.167 36.6678 326.799 37.9464 326.81 39.2499V53.5899C326.819 54.1554 326.612 54.7029 326.23 55.1199C326.029 55.3228 325.79 55.4839 325.527 55.5938C325.263 55.7037 324.98 55.7603 324.695 55.7603C324.409 55.7603 324.127 55.7037 323.863 55.5938C323.6 55.4839 323.361 55.3228 323.16 55.1199C322.773 54.7057 322.565 54.1563 322.58 53.5899V39.0899C322.595 37.8688 322.399 36.6543 322 35.4999C321.649 34.4532 320.986 33.5389 320.1 32.8799C319.041 32.1634 317.777 31.8123 316.5 31.8799C315.148 31.8671 313.816 32.2121 312.64 32.8799C311.501 33.5074 310.535 34.4076 309.83 35.4999C309.137 36.5684 308.772 37.8164 308.78 39.0899V53.5899C308.784 53.8725 308.732 54.1531 308.627 54.4157C308.523 54.6782 308.367 54.9175 308.17 55.1199C307.974 55.3195 307.741 55.478 307.483 55.5863C307.226 55.6945 306.949 55.7502 306.67 55.7502C306.391 55.7502 306.114 55.6945 305.856 55.5863C305.599 55.478 305.365 55.3195 305.17 55.1199C304.973 54.9175 304.817 54.6782 304.713 54.4157C304.608 54.1531 304.556 53.8725 304.56 53.5899V30.5899C304.552 30.3023 304.602 30.0161 304.707 29.7481C304.811 29.4801 304.969 29.2359 305.17 29.0299C305.368 28.8333 305.604 28.6787 305.864 28.5756C306.123 28.4725 306.401 28.4229 306.68 28.4299C306.963 28.4159 307.246 28.4621 307.509 28.5655C307.773 28.669 308.012 28.8273 308.21 29.0299C308.606 29.4512 308.818 30.0123 308.8 30.5899V34.5899L307.63 35.8599C307.796 34.8769 308.168 33.9399 308.72 33.1099C309.34 32.1331 310.11 31.2593 311 30.5199C311.899 29.7524 312.911 29.1284 314 28.6699C315.154 28.2104 316.388 27.9827 317.63 27.9999Z" fill="#EE2938"/>
</g>
<defs>
<clipPath id="clip0_2335_104">
<rect width="345.2" height="70.25" fill="white"/>
</clipPath>
</defs>
</svg>
