<svg width="644" height="32" viewBox="0 0 644 32" fill="none" xmlns="http://www.w3.org/2000/svg">
<g clip-path="url(#clip0_14_2)">
<mask id="mask0_14_2" style="mask-type:luminance" maskUnits="userSpaceOnUse" x="0" y="0" width="644" height="32">
<path d="M644 0H0V31.1111H644V0Z" fill="white"/>
</mask>
<g mask="url(#mask0_14_2)">
<path d="M0 12.4445C0 8.08848 0 5.9105 0.847727 4.24674C1.59341 2.78326 2.78326 1.59341 4.24674 0.847727C5.9105 0 8.08848 0 12.4444 0H631.555C635.911 0 638.089 0 639.753 0.847727C641.217 1.59341 642.407 2.78326 643.152 4.24674C644 5.9105 644 8.08848 644 12.4444V31.1111H0V12.4445Z" fill="#25334D"/>
<mask id="mask1_14_2" style="mask-type:luminance" maskUnits="userSpaceOnUse" x="556" y="5" width="76" height="20">
<path d="M631.556 5.44446H556.889V24.1112H631.556V5.44446Z" fill="white"/>
</mask>
<g mask="url(#mask1_14_2)">
<path d="M566.229 16.6239C566.557 16.6239 566.828 16.353 566.828 16.0305V9.54144L566.783 8.58679L567.176 9.05767L568.079 10.0188C568.182 10.1349 568.33 10.1929 568.478 10.1929C568.775 10.1929 569.02 9.98007 569.02 9.6769C569.02 9.51564 568.955 9.39953 568.846 9.28988L566.686 7.20641C566.532 7.0516 566.383 7 566.229 7C566.067 7 565.926 7.0516 565.771 7.20641L563.605 9.28988C563.496 9.39953 563.431 9.51564 563.431 9.6769C563.431 9.98007 563.67 10.1929 563.966 10.1929C564.114 10.1929 564.269 10.1349 564.372 10.0188L565.275 9.05767L565.674 8.58034L565.623 9.54144V16.0305C565.623 16.353 565.893 16.6239 566.229 16.6239ZM562.509 21.7778H569.935C571.334 21.7778 572.056 21.0553 572.056 19.675V13.3343C572.056 11.9539 571.334 11.2314 569.935 11.2314H568.195V12.5151H569.851C570.438 12.5151 570.773 12.8247 570.773 13.4439V19.5589C570.773 20.1781 570.438 20.4877 569.851 20.4877H562.593C562 20.4877 561.672 20.1781 561.672 19.5589V13.4439C561.672 12.8247 562 12.5151 562.593 12.5151H564.269V11.2314H562.509C561.117 11.2314 560.389 11.9474 560.389 13.3343V19.675C560.389 21.0553 561.117 21.7778 562.509 21.7778Z" fill="#B7B7B7"/>
<path d="M593.444 20.2223C593.854 20.2223 594.186 19.8896 594.186 19.5121V15.5072H598.154C598.551 15.5072 598.889 15.1809 598.889 14.7778C598.889 14.3812 598.551 14.0485 598.154 14.0485H594.186V10.0435C594.186 9.65966 593.854 9.33337 593.444 9.33337C593.041 9.33337 592.703 9.65966 592.703 10.0435V14.0485H588.735C588.351 14.0485 588 14.3812 588 14.7778C588 15.1809 588.351 15.5072 588.735 15.5072H592.703V19.5121C592.703 19.8896 593.041 20.2223 593.444 20.2223Z" fill="#B7B7B7"/>
<path d="M617.344 18.6938H618.44V19.6675C618.44 21.0475 619.169 21.7698 620.562 21.7698H627.101C628.493 21.7698 629.222 21.0475 629.222 19.6675V13.0834C629.222 11.7034 628.493 10.9812 627.101 10.9812H626.004V10.0139C626.004 8.63387 625.276 7.91162 623.883 7.91162H617.344C615.944 7.91162 615.222 8.63387 615.222 10.0139V16.5915C615.222 17.978 615.944 18.6938 617.344 18.6938ZM617.428 17.4105C616.834 17.4105 616.505 17.1009 616.505 16.4754V10.13C616.505 9.50444 616.834 9.20135 617.428 9.20135H623.799C624.386 9.20135 624.721 9.50444 624.721 10.13V10.9812H620.562C619.169 10.9812 618.44 11.7034 618.44 13.0834V17.4105H617.428ZM620.645 20.48C620.052 20.48 619.73 20.1705 619.73 19.5514V13.1995C619.73 12.5804 620.052 12.2709 620.645 12.2709H627.017C627.61 12.2709 627.939 12.5804 627.939 13.1995V19.5514C627.939 20.1705 627.61 20.48 627.017 20.48H620.645Z" fill="#B7B7B7"/>
</g>
<mask id="mask2_14_2" style="mask-type:luminance" maskUnits="userSpaceOnUse" x="74" y="5" width="77" height="20">
<path d="M150.889 5.44446H74.6666V24.1112H150.889V5.44446Z" fill="white"/>
</mask>
<g mask="url(#mask2_14_2)">
<path d="M78.3463 21.3999H89.3928C90.7937 21.3999 91.5233 20.6769 91.5233 19.2952V11.4381C91.5233 10.0565 90.7937 9.33337 89.3928 9.33337H78.3463C76.9517 9.33337 76.2222 10.05 76.2222 11.4381V19.2952C76.2222 20.6769 76.9517 21.3999 78.3463 21.3999ZM78.4302 20.1152C77.8362 20.1152 77.507 19.8053 77.507 19.179V11.5543C77.507 10.928 77.8362 10.6182 78.4302 10.6182H81.3742V20.1152H78.4302ZM89.3088 10.6182C89.9028 10.6182 90.2321 10.928 90.2321 11.5543V19.179C90.2321 19.8053 89.9028 20.1152 89.3088 20.1152H82.5944V10.6182H89.3088ZM80.1088 12.9811C80.3412 12.9811 80.5349 12.781 80.5349 12.5615C80.5349 12.3419 80.3412 12.1483 80.1088 12.1483H78.7853C78.5529 12.1483 78.3592 12.3419 78.3592 12.5615C78.3592 12.781 78.5529 12.9811 78.7853 12.9811H80.1088ZM80.1088 14.7178C80.3412 14.7178 80.5349 14.5241 80.5349 14.2982C80.5349 14.0787 80.3412 13.885 80.1088 13.885H78.7853C78.5529 13.885 78.3592 14.0787 78.3592 14.2982C78.3592 14.5241 78.5529 14.7178 78.7853 14.7178H80.1088ZM80.1088 16.4481C80.3412 16.4481 80.5349 16.2608 80.5349 16.0349C80.5349 15.8154 80.3412 15.6281 80.1088 15.6281H78.7853C78.5529 15.6281 78.3592 15.8154 78.3592 16.0349C78.3592 16.2608 78.5529 16.4481 78.7853 16.4481H80.1088Z" fill="#B7B7B7"/>
<path d="M116.199 20.2952L111.471 15.6711C111.307 15.507 111.222 15.3247 111.222 15.112C111.222 14.8994 111.307 14.7049 111.477 14.5469L116.205 9.92889C116.339 9.79521 116.509 9.72229 116.703 9.72229C117.11 9.72229 117.426 10.0383 117.426 10.4393C117.426 10.6337 117.347 10.8221 117.207 10.9619L112.954 15.106L117.207 19.2622C117.347 19.402 117.426 19.5843 117.426 19.7848C117.426 20.1858 117.11 20.5018 116.703 20.5018C116.509 20.5018 116.339 20.4289 116.199 20.2952Z" fill="#B7B7B7"/>
<path d="M139.556 20.5018C139.757 20.5018 139.921 20.4289 140.061 20.2952L144.788 15.6772C144.952 15.507 145.037 15.3308 145.037 15.112C145.037 14.8994 144.958 14.711 144.788 14.553L140.061 9.92889C139.921 9.79521 139.757 9.72229 139.556 9.72229C139.149 9.72229 138.833 10.0383 138.833 10.4393C138.833 10.6337 138.918 10.8221 139.052 10.9619L143.312 15.1181L139.052 19.2622C138.912 19.4081 138.833 19.5843 138.833 19.7848C138.833 20.1858 139.149 20.5018 139.556 20.5018Z" fill="#5A5A5A"/>
</g>
<mask id="mask3_14_2" style="mask-type:luminance" maskUnits="userSpaceOnUse" x="15" y="10" width="41" height="11">
<path d="M55.9999 10.8889H15.5555V20.2222H55.9999V10.8889Z" fill="white"/>
</mask>
<g mask="url(#mask3_14_2)">
<path d="M20.2222 20.2223C22.7995 20.2223 24.8889 18.1329 24.8889 15.5556C24.8889 12.9783 22.7995 10.8889 20.2222 10.8889C17.6449 10.8889 15.5555 12.9783 15.5555 15.5556C15.5555 18.1329 17.6449 20.2223 20.2222 20.2223Z" fill="#ED6A5E"/>
<path d="M20.2222 19.8334C22.5847 19.8334 24.5 17.9182 24.5 15.5556C24.5 13.1931 22.5847 11.2778 20.2222 11.2778C17.8596 11.2778 15.9444 13.1931 15.9444 15.5556C15.9444 17.9182 17.8596 19.8334 20.2222 19.8334Z" stroke="black" stroke-opacity="0.1" stroke-width="0.777778"/>
<path d="M35.7778 20.2223C38.3551 20.2223 40.4445 18.1329 40.4445 15.5556C40.4445 12.9783 38.3551 10.8889 35.7778 10.8889C33.2005 10.8889 31.1111 12.9783 31.1111 15.5556C31.1111 18.1329 33.2005 20.2223 35.7778 20.2223Z" fill="#F4BD50"/>
<path d="M35.7778 19.8334C38.1404 19.8334 40.0556 17.9182 40.0556 15.5556C40.0556 13.1931 38.1404 11.2778 35.7778 11.2778C33.4152 11.2778 31.5 13.1931 31.5 15.5556C31.5 17.9182 33.4152 19.8334 35.7778 19.8334Z" stroke="black" stroke-opacity="0.1" stroke-width="0.777778"/>
<path d="M51.3333 20.2223C53.9106 20.2223 56 18.1329 56 15.5556C56 12.9783 53.9106 10.8889 51.3333 10.8889C48.756 10.8889 46.6666 12.9783 46.6666 15.5556C46.6666 18.1329 48.756 20.2223 51.3333 20.2223Z" fill="#61C454"/>
<path d="M51.3333 19.8334C53.6958 19.8334 55.6111 17.9182 55.6111 15.5556C55.6111 13.1931 53.6958 11.2778 51.3333 11.2778C48.9707 11.2778 47.0555 13.1931 47.0555 15.5556C47.0555 17.9182 48.9707 19.8334 51.3333 19.8334Z" stroke="black" stroke-opacity="0.1" stroke-width="0.777778"/>
</g>
<path d="M220.889 21.7778C221.005 21.7778 221.178 21.7388 221.339 21.6478C225.046 19.6141 226.333 18.672 226.333 16.3069V11.4014C226.333 10.6217 226.031 10.3423 225.387 10.0629C224.673 9.75756 222.272 8.9129 221.571 8.6725C221.359 8.60102 221.108 8.55554 220.889 8.55554C220.67 8.55554 220.419 8.61402 220.207 8.6725C219.505 8.87391 217.105 9.76406 216.39 10.0629C215.747 10.3358 215.444 10.6217 215.444 11.4014V16.3069C215.444 18.672 216.738 19.6011 220.432 21.6478C220.599 21.7388 220.773 21.7778 220.889 21.7778ZM221.236 9.86802C222.079 10.2059 223.914 10.8621 224.879 11.2065C225.059 11.278 225.104 11.3754 225.104 11.6093V16.0665C225.104 17.9703 224.158 18.4836 221.256 20.2509C221.075 20.3613 220.985 20.4003 220.895 20.4003V9.79655C220.985 9.79655 221.082 9.81604 221.236 9.86802Z" fill="#B7B7B7"/>
<mask id="mask4_14_2" style="mask-type:luminance" maskUnits="userSpaceOnUse" x="234" y="4" width="176" height="23">
<path d="M409.889 4.66663H234.111V26.4444H409.889V4.66663Z" fill="white"/>
</mask>
<g mask="url(#mask4_14_2)">
<path d="M234.111 12.1333C234.111 9.51971 234.111 8.21292 234.62 7.21467C235.067 6.33658 235.781 5.62267 236.659 5.17526C237.657 4.66663 238.964 4.66663 241.578 4.66663H402.422C405.036 4.66663 406.343 4.66663 407.341 5.17526C408.219 5.62267 408.933 6.33658 409.38 7.21467C409.889 8.21292 409.889 9.51971 409.889 12.1333V18.9777C409.889 21.5913 409.889 22.8981 409.38 23.8964C408.933 24.7744 408.219 25.4884 407.341 25.9358C406.343 26.4444 405.036 26.4444 402.422 26.4444H241.578C238.964 26.4444 237.657 26.4444 236.659 25.9358C235.781 25.4884 235.067 24.7744 234.62 23.8964C234.111 22.8981 234.111 21.5913 234.111 18.9777V12.1333Z" fill="#3C5175"/>
<path d="M268.89 13.9713C268.89 14.0009 268.886 14.0366 268.877 14.0783C268.868 14.1218 268.853 14.1749 268.831 14.2376L267.098 19.6893C267.085 19.7363 267.065 19.7746 267.036 19.8042C267.008 19.8338 266.968 19.8573 266.918 19.8747C266.868 19.8903 266.8 19.9017 266.712 19.9086C266.625 19.9156 266.516 19.9191 266.385 19.9191C266.249 19.9191 266.136 19.9147 266.045 19.906C265.954 19.8973 265.881 19.8842 265.825 19.8668C265.772 19.8494 265.731 19.8259 265.705 19.7963C265.678 19.7668 265.658 19.7311 265.646 19.6893L264.41 15.5274L264.397 15.47L264.384 15.5274L263.237 19.6893C263.224 19.7363 263.204 19.7746 263.175 19.8042C263.147 19.8338 263.105 19.8573 263.049 19.8747C262.992 19.8903 262.919 19.9017 262.83 19.9086C262.74 19.9156 262.63 19.9191 262.5 19.9191C262.364 19.9191 262.253 19.9147 262.168 19.906C262.084 19.8973 262.014 19.8842 261.959 19.8668C261.905 19.8494 261.865 19.8259 261.838 19.7963C261.811 19.7668 261.792 19.7311 261.779 19.6893L260.059 14.2376C260.038 14.1749 260.022 14.1218 260.013 14.0783C260.004 14.0366 260 14.0009 260 13.9713C260 13.933 260.009 13.9017 260.027 13.8773C260.045 13.8547 260.074 13.8355 260.115 13.8198C260.156 13.8059 260.212 13.7963 260.281 13.7911C260.351 13.7876 260.436 13.7859 260.536 13.7859C260.659 13.7859 260.757 13.7894 260.831 13.7963C260.906 13.8016 260.963 13.812 261.002 13.8277C261.041 13.8416 261.069 13.8625 261.085 13.8903C261.103 13.9182 261.118 13.9513 261.131 13.9896L262.551 18.7206L262.564 18.7781L262.578 18.7206L263.88 13.9896C263.889 13.9513 263.903 13.9182 263.923 13.8903C263.942 13.8625 263.972 13.8416 264.011 13.8277C264.05 13.812 264.103 13.8016 264.169 13.7963C264.237 13.7894 264.326 13.7859 264.434 13.7859C264.54 13.7859 264.627 13.7894 264.694 13.7963C264.762 13.8016 264.816 13.812 264.855 13.8277C264.893 13.8416 264.92 13.8616 264.938 13.8877C264.956 13.9138 264.969 13.9434 264.978 13.9765L266.385 18.7206L266.399 18.7781L266.404 18.7206L267.805 13.9896C267.812 13.9513 267.826 13.9182 267.845 13.8903C267.865 13.8625 267.896 13.8416 267.939 13.8277C267.98 13.812 268.037 13.8016 268.108 13.7963C268.179 13.7894 268.272 13.7859 268.387 13.7859C268.49 13.7859 268.574 13.7876 268.639 13.7911C268.701 13.7963 268.751 13.8077 268.789 13.8251C268.826 13.8407 268.852 13.8599 268.866 13.8825C268.882 13.9034 268.89 13.933 268.89 13.9713ZM278.52 13.9713C278.52 14.0009 278.516 14.0366 278.507 14.0783C278.498 14.1218 278.483 14.1749 278.461 14.2376L276.728 19.6893C276.714 19.7363 276.692 19.7746 276.664 19.8042C276.637 19.8338 276.598 19.8573 276.548 19.8747C276.497 19.8903 276.428 19.9017 276.342 19.9086C276.254 19.9156 276.146 19.9191 276.015 19.9191C275.879 19.9191 275.766 19.9147 275.675 19.906C275.582 19.8973 275.509 19.8842 275.455 19.8668C275.4 19.8494 275.36 19.8259 275.335 19.7963C275.308 19.7668 275.288 19.7311 275.276 19.6893L274.038 15.5274L274.024 15.47L274.011 15.5274L272.867 19.6893C272.854 19.7363 272.834 19.7746 272.805 19.8042C272.777 19.8338 272.734 19.8573 272.677 19.8747C272.621 19.8903 272.549 19.9017 272.459 19.9086C272.37 19.9156 272.259 19.9191 272.127 19.9191C271.993 19.9191 271.883 19.9147 271.798 19.906C271.712 19.8973 271.642 19.8842 271.589 19.8668C271.533 19.8494 271.493 19.8259 271.468 19.7963C271.441 19.7668 271.422 19.7311 271.409 19.6893L269.689 14.2376C269.667 14.1749 269.652 14.1218 269.643 14.0783C269.634 14.0366 269.63 14.0009 269.63 13.9713C269.63 13.933 269.639 13.9017 269.657 13.8773C269.673 13.8547 269.701 13.8355 269.743 13.8198C269.785 13.8059 269.842 13.7963 269.911 13.7911C269.981 13.7876 270.066 13.7859 270.166 13.7859C270.287 13.7859 270.386 13.7894 270.461 13.7963C270.534 13.8016 270.59 13.812 270.629 13.8277C270.669 13.8416 270.697 13.8625 270.715 13.8903C270.733 13.9182 270.748 13.9513 270.761 13.9896L272.181 18.7206L272.194 18.7781L272.208 18.7206L273.51 13.9896C273.517 13.9513 273.53 13.9182 273.55 13.8903C273.57 13.8625 273.599 13.8416 273.638 13.8277C273.678 13.812 273.731 13.8016 273.799 13.7963C273.867 13.7894 273.956 13.7859 274.064 13.7859C274.17 13.7859 274.256 13.7894 274.322 13.7963C274.39 13.8016 274.443 13.812 274.482 13.8277C274.522 13.8416 274.55 13.8616 274.568 13.8877C274.586 13.9138 274.599 13.9434 274.608 13.9765L276.015 18.7206L276.026 18.7781L276.034 18.7206L277.433 13.9896C277.441 13.9513 277.456 13.9182 277.475 13.8903C277.495 13.8625 277.525 13.8416 277.567 13.8277C277.609 13.812 277.667 13.8016 277.738 13.7963C277.809 13.7894 277.902 13.7859 278.017 13.7859C278.12 13.7859 278.204 13.7876 278.269 13.7911C278.331 13.7963 278.381 13.8077 278.419 13.8251C278.456 13.8407 278.482 13.8599 278.496 13.8825C278.512 13.9034 278.52 13.933 278.52 13.9713ZM288.148 13.9713C288.148 14.0009 288.143 14.0366 288.134 14.0783C288.127 14.1218 288.112 14.1749 288.089 14.2376L286.355 19.6893C286.343 19.7363 286.322 19.7746 286.294 19.8042C286.265 19.8338 286.226 19.8573 286.176 19.8747C286.126 19.8903 286.057 19.9017 285.969 19.9086C285.884 19.9156 285.775 19.9191 285.642 19.9191C285.508 19.9191 285.395 19.9147 285.302 19.906C285.211 19.8973 285.139 19.8842 285.085 19.8668C285.03 19.8494 284.989 19.8259 284.962 19.7963C284.937 19.7668 284.917 19.7311 284.903 19.6893L283.668 15.5274L283.654 15.47L283.641 15.5274L282.497 19.6893C282.484 19.7363 282.464 19.7746 282.435 19.8042C282.407 19.8338 282.364 19.8573 282.306 19.8747C282.249 19.8903 282.176 19.9017 282.087 19.9086C281.997 19.9156 281.888 19.9191 281.757 19.9191C281.621 19.9191 281.512 19.9147 281.428 19.906C281.342 19.8973 281.272 19.8842 281.219 19.8668C281.163 19.8494 281.123 19.8259 281.098 19.7963C281.071 19.7668 281.052 19.7311 281.039 19.6893L279.316 14.2376C279.295 14.1749 279.28 14.1218 279.271 14.0783C279.264 14.0366 279.26 14.0009 279.26 13.9713C279.26 13.933 279.268 13.9017 279.284 13.8773C279.302 13.8547 279.331 13.8355 279.372 13.8198C279.414 13.8059 279.469 13.7963 279.539 13.7911C279.61 13.7876 279.696 13.7859 279.796 13.7859C279.917 13.7859 280.016 13.7894 280.091 13.7963C280.164 13.8016 280.22 13.812 280.259 13.8277C280.299 13.8416 280.327 13.8625 280.345 13.8903C280.363 13.9182 280.378 13.9513 280.391 13.9896L281.811 18.7206L281.824 18.7781L281.835 18.7206L283.137 13.9896C283.146 13.9513 283.16 13.9182 283.18 13.8903C283.2 13.8625 283.229 13.8416 283.268 13.8277C283.308 13.812 283.361 13.8016 283.429 13.7963C283.497 13.7894 283.585 13.7859 283.694 13.7859C283.798 13.7859 283.884 13.7894 283.952 13.7963C284.02 13.8016 284.073 13.812 284.112 13.8277C284.152 13.8416 284.18 13.8616 284.198 13.8877C284.216 13.9138 284.229 13.9434 284.236 13.9765L285.642 18.7206L285.656 18.7781L285.664 18.7206L287.063 13.9896C287.071 13.9513 287.086 13.9182 287.105 13.8903C287.125 13.8625 287.155 13.8416 287.196 13.8277C287.238 13.812 287.295 13.8016 287.368 13.7963C287.439 13.7894 287.531 13.7859 287.644 13.7859C287.749 13.7859 287.833 13.7876 287.896 13.7911C287.96 13.7963 288.011 13.8077 288.049 13.8251C288.084 13.8407 288.11 13.8599 288.126 13.8825C288.141 13.9034 288.148 13.933 288.148 13.9713ZM290.026 19.1854C290.026 19.4865 289.975 19.6876 289.873 19.7885C289.77 19.8877 289.583 19.9373 289.313 19.9373C289.051 19.9373 288.869 19.8886 288.769 19.7911C288.669 19.6936 288.619 19.4978 288.619 19.2037C288.619 18.9025 288.671 18.7015 288.775 18.6005C288.876 18.5013 289.062 18.4517 289.332 18.4517C289.595 18.4517 289.776 18.5004 289.876 18.5979C289.976 18.6954 290.026 18.8912 290.026 19.1854ZM296.451 19.7258C296.451 19.7781 296.433 19.8164 296.398 19.8407C296.362 19.8668 296.314 19.886 296.253 19.8982C296.192 19.9121 296.103 19.9191 295.985 19.9191C295.873 19.9191 295.782 19.9121 295.714 19.8982C295.647 19.886 295.597 19.8668 295.567 19.8407C295.537 19.8164 295.522 19.7781 295.522 19.7258V19.154C295.264 19.4204 294.978 19.6284 294.661 19.7781C294.345 19.926 294.01 20 293.657 20C293.348 20 293.067 19.9608 292.815 19.8825C292.565 19.8042 292.352 19.691 292.175 19.5431C291.998 19.3934 291.861 19.2106 291.762 18.9948C291.664 18.7772 291.615 18.53 291.615 18.2533C291.615 17.9312 291.683 17.651 291.819 17.4125C291.954 17.1741 292.148 16.9765 292.4 16.8198C292.654 16.6632 292.964 16.5457 293.33 16.4674C293.696 16.3873 294.108 16.3473 294.565 16.3473H295.377V15.9034C295.377 15.6823 295.353 15.4865 295.305 15.3159C295.256 15.1453 295.179 15.0044 295.074 14.893C294.967 14.7798 294.828 14.6945 294.659 14.6371C294.487 14.5796 294.277 14.5509 294.029 14.5509C293.763 14.5509 293.524 14.5814 293.314 14.6423C293.101 14.705 292.915 14.7737 292.756 14.8486C292.597 14.9217 292.464 14.9896 292.357 15.0522C292.252 15.1131 292.172 15.1436 292.119 15.1436C292.085 15.1436 292.054 15.1349 292.028 15.1175C292.001 15.1018 291.978 15.0766 291.958 15.0418C291.94 15.007 291.927 14.9634 291.918 14.9112C291.909 14.8573 291.904 14.799 291.904 14.7363C291.904 14.6301 291.911 14.5457 291.926 14.483C291.942 14.4221 291.979 14.3638 292.038 14.3081C292.097 14.2524 292.198 14.188 292.341 14.1149C292.486 14.04 292.652 13.9722 292.839 13.9112C293.027 13.8486 293.232 13.7972 293.453 13.7572C293.676 13.7171 293.901 13.6971 294.128 13.6971C294.552 13.6971 294.912 13.7441 295.208 13.8381C295.505 13.9304 295.744 14.067 295.926 14.248C296.11 14.4291 296.243 14.6536 296.325 14.9217C296.409 15.188 296.451 15.4996 296.451 15.8564V19.7258ZM295.377 17.107H294.455C294.159 17.107 293.901 17.1314 293.683 17.1802C293.466 17.2289 293.284 17.3011 293.14 17.3969C292.997 17.4926 292.891 17.6075 292.823 17.7415C292.755 17.8755 292.722 18.0296 292.722 18.2037C292.722 18.5013 292.819 18.738 293.014 18.9138C293.207 19.0896 293.478 19.1775 293.828 19.1775C294.11 19.1775 294.373 19.1079 294.616 18.9687C294.857 18.8277 295.111 18.6127 295.377 18.3238V17.107ZM301.872 14.3603C301.872 14.4526 301.87 14.5309 301.867 14.5953C301.863 14.6597 301.854 14.7093 301.84 14.7441C301.827 14.7807 301.811 14.8085 301.791 14.8277C301.772 14.8468 301.744 14.8564 301.708 14.8564C301.674 14.8564 301.632 14.8468 301.582 14.8277C301.532 14.8085 301.475 14.7894 301.411 14.7702C301.348 14.7511 301.278 14.7328 301.199 14.7154C301.121 14.6997 301.036 14.6919 300.945 14.6919C300.836 14.6919 300.729 14.7128 300.623 14.7546C300.52 14.7981 300.41 14.8686 300.294 14.9661C300.178 15.0635 300.056 15.1932 299.929 15.3551C299.804 15.5152 299.665 15.7128 299.511 15.9478V19.7206C299.511 19.7537 299.502 19.7824 299.484 19.8068C299.468 19.8294 299.441 19.8494 299.401 19.8668C299.362 19.8842 299.308 19.8973 299.238 19.906C299.167 19.9147 299.076 19.9191 298.967 19.9191C298.864 19.9191 298.777 19.9147 298.707 19.906C298.638 19.8973 298.582 19.8842 298.541 19.8668C298.498 19.8494 298.47 19.8294 298.456 19.8068C298.439 19.7824 298.431 19.7537 298.431 19.7206V13.9843C298.431 13.9495 298.439 13.9208 298.453 13.8982C298.465 13.8738 298.491 13.852 298.531 13.8329C298.57 13.8138 298.62 13.8016 298.681 13.7963C298.741 13.7894 298.822 13.7859 298.922 13.7859C299.018 13.7859 299.098 13.7894 299.16 13.7963C299.225 13.8016 299.274 13.8138 299.308 13.8329C299.343 13.852 299.368 13.8738 299.383 13.8982C299.399 13.9208 299.407 13.9495 299.407 13.9843V14.8198C299.568 14.5901 299.719 14.403 299.862 14.2585C300.003 14.114 300.137 14 300.264 13.9164C300.391 13.8329 300.516 13.7755 300.639 13.7441C300.764 13.7128 300.89 13.6971 301.017 13.6971C301.072 13.6971 301.137 13.6997 301.21 13.705C301.281 13.7119 301.357 13.7241 301.435 13.7415C301.514 13.7589 301.584 13.7781 301.647 13.799C301.711 13.8198 301.756 13.8407 301.781 13.8616C301.808 13.8842 301.825 13.9051 301.834 13.9243C301.843 13.9417 301.85 13.9661 301.856 13.9974C301.863 14.027 301.867 14.0705 301.869 14.1279C301.871 14.1854 301.872 14.2628 301.872 14.3603ZM307.952 16.6031C307.952 16.7685 307.909 16.8869 307.823 16.9582C307.737 17.0279 307.64 17.0627 307.531 17.0627H303.672C303.672 17.3812 303.705 17.6675 303.769 17.9217C303.835 18.1775 303.945 18.3969 304.098 18.5796C304.25 18.7624 304.449 18.9025 304.693 19C304.936 19.0975 305.235 19.1462 305.588 19.1462C305.867 19.1462 306.115 19.1245 306.333 19.0809C306.553 19.0357 306.742 18.9852 306.901 18.9295C307.06 18.8738 307.191 18.8242 307.292 18.7807C307.396 18.7354 307.474 18.7128 307.526 18.7128C307.556 18.7128 307.583 18.7206 307.606 18.7363C307.631 18.7502 307.65 18.772 307.662 18.8016C307.675 18.8312 307.684 18.8729 307.692 18.9269C307.699 18.9809 307.702 19.0453 307.702 19.1201C307.702 19.1758 307.7 19.2237 307.694 19.2637C307.691 19.3055 307.685 19.342 307.678 19.3734C307.673 19.4047 307.662 19.4334 307.646 19.4595C307.63 19.4856 307.61 19.51 307.587 19.5326C307.564 19.5553 307.493 19.5936 307.375 19.6475C307.258 19.6997 307.105 19.752 306.917 19.8042C306.73 19.8547 306.513 19.8999 306.266 19.9399C306.02 19.98 305.757 20 305.478 20C304.994 20 304.57 19.9347 304.206 19.8042C303.841 19.6719 303.535 19.4761 303.287 19.2167C303.038 18.9574 302.851 18.6327 302.724 18.2428C302.597 17.8512 302.534 17.396 302.534 16.8773C302.534 16.3847 302.599 15.9417 302.729 15.5483C302.861 15.1549 303.05 14.8216 303.295 14.5483C303.541 14.2733 303.839 14.0627 304.19 13.9164C304.538 13.7702 304.928 13.6971 305.361 13.6971C305.823 13.6971 306.216 13.7694 306.539 13.9138C306.865 14.0583 307.132 14.2524 307.341 14.4961C307.551 14.7415 307.706 15.0287 307.804 15.3577C307.902 15.6867 307.952 16.0383 307.952 16.4125V16.6031ZM306.864 16.2898C306.878 15.738 306.753 15.3046 306.489 14.9896C306.224 14.6762 305.833 14.5196 305.315 14.5196C305.049 14.5196 304.815 14.5683 304.613 14.6658C304.413 14.7633 304.245 14.893 304.109 15.0548C303.975 15.2167 303.871 15.4047 303.796 15.6188C303.722 15.8329 303.681 16.0566 303.672 16.2898H306.864ZM314.615 16.6031C314.615 16.7685 314.573 16.8869 314.489 16.9582C314.404 17.0279 314.306 17.0627 314.197 17.0627H310.339C310.339 17.3812 310.371 17.6675 310.435 17.9217C310.501 18.1775 310.61 18.3969 310.762 18.5796C310.916 18.7624 311.114 18.9025 311.357 19C311.602 19.0975 311.901 19.1462 312.255 19.1462C312.533 19.1462 312.782 19.1245 313 19.0809C313.218 19.0357 313.406 18.9852 313.565 18.9295C313.726 18.8738 313.857 18.8242 313.959 18.7807C314.061 18.7354 314.138 18.7128 314.192 18.7128C314.222 18.7128 314.249 18.7206 314.272 18.7363C314.297 18.7502 314.316 18.772 314.329 18.8016C314.341 18.8312 314.351 18.8729 314.358 18.9269C314.365 18.9809 314.369 19.0453 314.369 19.1201C314.369 19.1758 314.366 19.2237 314.361 19.2637C314.357 19.3055 314.352 19.342 314.345 19.3734C314.338 19.4047 314.327 19.4334 314.313 19.4595C314.296 19.4856 314.277 19.51 314.254 19.5326C314.229 19.5553 314.157 19.5936 314.039 19.6475C313.923 19.6997 313.771 19.752 313.584 19.8042C313.396 19.8547 313.179 19.8999 312.933 19.9399C312.686 19.98 312.423 20 312.142 20C311.658 20 311.235 19.9347 310.872 19.8042C310.508 19.6719 310.201 19.4761 309.953 19.2167C309.703 18.9574 309.515 18.6327 309.39 18.2428C309.264 17.8512 309.2 17.396 309.2 16.8773C309.2 16.3847 309.265 15.9417 309.396 15.5483C309.526 15.1549 309.715 14.8216 309.961 14.5483C310.208 14.2733 310.505 14.0627 310.853 13.9164C311.204 13.7702 311.595 13.6971 312.027 13.6971C312.488 13.6971 312.881 13.7694 313.206 13.9138C313.531 14.0583 313.798 14.2524 314.007 14.4961C314.216 14.7415 314.37 15.0287 314.468 15.3577C314.566 15.6867 314.615 16.0383 314.615 16.4125V16.6031ZM313.53 16.2898C313.543 15.738 313.418 15.3046 313.155 14.9896C312.891 14.6762 312.499 14.5196 311.979 14.5196C311.713 14.5196 311.479 14.5683 311.279 14.6658C311.079 14.7633 310.911 14.893 310.776 15.0548C310.642 15.2167 310.537 15.4047 310.462 15.6188C310.389 15.8329 310.348 16.0566 310.339 16.2898H313.53ZM321.676 16.7755C321.676 17.2733 321.619 17.7206 321.507 18.1175C321.396 18.5144 321.233 18.8529 321.017 19.1332C320.8 19.4134 320.536 19.6284 320.223 19.7781C319.909 19.926 319.549 20 319.144 20C318.956 20 318.783 19.9826 318.624 19.9478C318.465 19.9112 318.309 19.852 318.155 19.7702C318.003 19.6902 317.85 19.5883 317.697 19.4648C317.545 19.3429 317.384 19.1941 317.214 19.0183V19.7206C317.214 19.7537 317.205 19.7833 317.188 19.8094C317.17 19.8355 317.141 19.8555 317.102 19.8695C317.063 19.8851 317.013 19.8973 316.955 19.906C316.896 19.9147 316.821 19.9191 316.729 19.9191C316.642 19.9191 316.568 19.9147 316.507 19.906C316.446 19.8973 316.396 19.8851 316.357 19.8695C316.318 19.8555 316.291 19.8355 316.277 19.8094C316.264 19.7833 316.258 19.7537 316.258 19.7206V11.2037C316.258 11.1706 316.266 11.141 316.282 11.1149C316.296 11.0888 316.324 11.0679 316.365 11.0522C316.408 11.0348 316.464 11.0218 316.534 11.0131C316.604 11.0044 316.69 11 316.794 11C316.903 11 316.992 11.0044 317.062 11.0131C317.131 11.0218 317.186 11.0348 317.225 11.0522C317.264 11.0679 317.293 11.0888 317.311 11.1149C317.329 11.141 317.338 11.1706 317.338 11.2037V14.6397C317.513 14.4656 317.682 14.3194 317.844 14.201C318.008 14.0809 318.169 13.9843 318.326 13.9112C318.482 13.8364 318.638 13.7815 318.795 13.7467C318.952 13.7137 319.119 13.6971 319.294 13.6971C319.721 13.6971 320.086 13.7798 320.39 13.9452C320.693 14.1105 320.94 14.3325 321.129 14.611C321.318 14.8895 321.457 15.2158 321.544 15.5901C321.632 15.9643 321.676 16.3594 321.676 16.7755ZM320.537 16.8956C320.537 16.6031 320.514 16.3185 320.467 16.0418C320.423 15.7668 320.343 15.5231 320.229 15.3107C320.116 15.0966 319.966 14.9252 319.779 14.7963C319.591 14.6675 319.357 14.6031 319.077 14.6031C318.937 14.6031 318.801 14.6214 318.667 14.658C318.531 14.6963 318.393 14.7607 318.254 14.8512C318.115 14.9399 317.969 15.0548 317.817 15.1958C317.667 15.3351 317.507 15.5109 317.338 15.7232V18.0131C317.634 18.3647 317.917 18.6336 318.187 18.8198C318.459 19.0044 318.74 19.0966 319.031 19.0966C319.303 19.0966 319.534 19.0322 319.725 18.9034C319.916 18.7763 320.073 18.6075 320.194 18.3969C320.314 18.188 320.4 17.9521 320.454 17.6893C320.509 17.4282 320.537 17.1636 320.537 16.8956ZM327.731 19.7258C327.731 19.7781 327.714 19.8164 327.68 19.8407C327.645 19.8668 327.596 19.886 327.536 19.8982C327.475 19.9121 327.386 19.9191 327.268 19.9191C327.155 19.9191 327.065 19.9121 326.997 19.8982C326.929 19.886 326.88 19.8668 326.85 19.8407C326.819 19.8164 326.804 19.7781 326.804 19.7258V19.154C326.547 19.4204 326.26 19.6284 325.944 19.7781C325.628 19.926 325.293 20 324.939 20C324.63 20 324.35 19.9608 324.098 19.8825C323.848 19.8042 323.634 19.691 323.458 19.5431C323.281 19.3934 323.143 19.2106 323.045 18.9948C322.947 18.7772 322.898 18.53 322.898 18.2533C322.898 17.9312 322.965 17.651 323.101 17.4125C323.235 17.1741 323.429 16.9765 323.683 16.8198C323.936 16.6632 324.246 16.5457 324.612 16.4674C324.979 16.3873 325.39 16.3473 325.848 16.3473H326.66V15.9034C326.66 15.6823 326.635 15.4865 326.587 15.3159C326.539 15.1453 326.461 15.0044 326.354 14.893C326.249 14.7798 326.11 14.6945 325.939 14.6371C325.769 14.5796 325.56 14.5509 325.312 14.5509C325.046 14.5509 324.807 14.5814 324.596 14.6423C324.384 14.705 324.198 14.7737 324.039 14.8486C323.88 14.9217 323.747 14.9896 323.64 15.0522C323.533 15.1131 323.453 15.1436 323.401 15.1436C323.367 15.1436 323.337 15.1349 323.31 15.1175C323.283 15.1018 323.26 15.0766 323.241 15.0418C323.221 15.007 323.207 14.9634 323.198 14.9112C323.191 14.8573 323.187 14.799 323.187 14.7363C323.187 14.6301 323.194 14.5457 323.208 14.483C323.224 14.4221 323.262 14.3638 323.321 14.3081C323.38 14.2524 323.481 14.188 323.624 14.1149C323.768 14.04 323.935 13.9722 324.122 13.9112C324.31 13.8486 324.514 13.7972 324.736 13.7572C324.959 13.7171 325.184 13.6971 325.411 13.6971C325.832 13.6971 326.191 13.7441 326.488 13.8381C326.785 13.9304 327.025 14.067 327.209 14.248C327.393 14.4291 327.526 14.6536 327.608 14.9217C327.69 15.188 327.731 15.4996 327.731 15.8564V19.7258ZM326.66 17.107H325.738C325.441 17.107 325.184 17.1314 324.966 17.1802C324.748 17.2289 324.567 17.3011 324.422 17.3969C324.277 17.4926 324.172 17.6075 324.106 17.7415C324.038 17.8755 324.004 18.0296 324.004 18.2037C324.004 18.5013 324.101 18.738 324.294 18.9138C324.488 19.0896 324.76 19.1775 325.108 19.1775C325.392 19.1775 325.656 19.1079 325.899 18.9687C326.14 18.8277 326.393 18.6127 326.66 18.3238V17.107ZM333.155 14.3603C333.155 14.4526 333.153 14.5309 333.149 14.5953C333.144 14.6597 333.135 14.7093 333.122 14.7441C333.11 14.7807 333.094 14.8085 333.074 14.8277C333.054 14.8468 333.027 14.8564 332.991 14.8564C332.957 14.8564 332.915 14.8468 332.865 14.8277C332.815 14.8085 332.758 14.7894 332.694 14.7702C332.631 14.7511 332.561 14.7328 332.482 14.7154C332.403 14.6997 332.319 14.6919 332.227 14.6919C332.118 14.6919 332.011 14.7128 331.906 14.7546C331.8 14.7981 331.691 14.8686 331.576 14.9661C331.46 15.0635 331.339 15.1932 331.212 15.3551C331.085 15.5152 330.946 15.7128 330.794 15.9478V19.7206C330.794 19.7537 330.785 19.7824 330.767 19.8068C330.749 19.8294 330.721 19.8494 330.681 19.8668C330.642 19.8842 330.588 19.8973 330.518 19.906C330.448 19.9147 330.359 19.9191 330.25 19.9191C330.146 19.9191 330.06 19.9147 329.99 19.906C329.92 19.8973 329.864 19.8842 329.821 19.8668C329.78 19.8494 329.752 19.8294 329.738 19.8068C329.722 19.7824 329.714 19.7537 329.714 19.7206V13.9843C329.714 13.9495 329.72 13.9208 329.733 13.8982C329.747 13.8738 329.774 13.852 329.813 13.8329C329.853 13.8138 329.903 13.8016 329.963 13.7963C330.024 13.7894 330.104 13.7859 330.204 13.7859C330.301 13.7859 330.38 13.7894 330.443 13.7963C330.507 13.8016 330.556 13.8138 330.59 13.8329C330.626 13.852 330.651 13.8738 330.665 13.8982C330.681 13.9208 330.689 13.9495 330.689 13.9843V14.8198C330.85 14.5901 331.002 14.403 331.145 14.2585C331.286 14.114 331.42 14 331.547 13.9164C331.672 13.8329 331.797 13.7755 331.922 13.7441C332.047 13.7128 332.172 13.6971 332.297 13.6971C332.354 13.6971 332.419 13.6997 332.49 13.705C332.563 13.7119 332.639 13.7241 332.718 13.7415C332.796 13.7589 332.867 13.7781 332.929 13.799C332.992 13.8198 333.037 13.8407 333.063 13.8616C333.09 13.8842 333.108 13.9051 333.117 13.9243C333.124 13.9417 333.131 13.9661 333.138 13.9974C333.146 14.027 333.15 14.0705 333.152 14.1279C333.154 14.1854 333.155 14.2628 333.155 14.3603ZM337.852 18.1593C337.852 18.4517 337.796 18.7128 337.685 18.9426C337.575 19.1723 337.417 19.3655 337.211 19.5222C337.006 19.6806 336.761 19.7998 336.477 19.8799C336.195 19.96 335.883 20 335.542 20C335.333 20 335.134 19.9843 334.944 19.953C334.755 19.9217 334.585 19.8816 334.435 19.8329C334.283 19.7842 334.156 19.7328 334.052 19.6789C333.947 19.6266 333.87 19.5788 333.822 19.5352C333.773 19.4935 333.739 19.4343 333.717 19.3577C333.696 19.2811 333.685 19.1767 333.685 19.0444C333.685 18.9643 333.69 18.8964 333.698 18.8407C333.707 18.785 333.718 18.7406 333.731 18.7076C333.743 18.6728 333.762 18.6484 333.787 18.6345C333.81 18.6188 333.837 18.611 333.867 18.611C333.915 18.611 333.987 18.6397 334.082 18.6971C334.174 18.7546 334.29 18.8172 334.427 18.8851C334.565 18.953 334.727 19.0157 334.915 19.0731C335.102 19.1305 335.319 19.1593 335.563 19.1593C335.746 19.1593 335.911 19.1401 336.059 19.1018C336.207 19.0635 336.336 19.007 336.445 18.9321C336.554 18.859 336.638 18.765 336.697 18.6501C336.756 18.5352 336.785 18.3995 336.785 18.2428C336.785 18.0809 336.743 17.9443 336.659 17.8329C336.574 17.7232 336.461 17.6258 336.322 17.5405C336.182 17.4552 336.025 17.3795 335.85 17.3133C335.675 17.2472 335.495 17.1784 335.311 17.107C335.126 17.0339 334.944 16.9521 334.768 16.8616C334.591 16.7711 334.433 16.6597 334.293 16.5274C334.154 16.3951 334.041 16.2376 333.956 16.0548C333.872 15.8721 333.83 15.6536 333.83 15.3995C333.83 15.1732 333.874 14.9574 333.964 14.752C334.053 14.5448 334.187 14.3638 334.366 14.2089C334.544 14.054 334.768 13.9304 335.035 13.8381C335.303 13.7441 335.616 13.6971 335.973 13.6971C336.13 13.6971 336.288 13.7093 336.445 13.7337C336.602 13.7598 336.744 13.792 336.871 13.8303C336.998 13.8686 337.106 13.9104 337.195 13.9556C337.284 13.9991 337.351 14.0383 337.396 14.0731C337.443 14.1062 337.474 14.1358 337.49 14.1619C337.504 14.188 337.515 14.2167 337.522 14.248C337.529 14.2794 337.535 14.3185 337.541 14.3655C337.548 14.4125 337.551 14.47 337.551 14.5379C337.551 14.611 337.548 14.6736 337.541 14.7258C337.535 14.7798 337.525 14.8233 337.509 14.8564C337.493 14.8912 337.474 14.9156 337.452 14.9295C337.431 14.9452 337.407 14.953 337.38 14.953C337.341 14.953 337.284 14.9295 337.211 14.8825C337.136 14.8355 337.04 14.7859 336.922 14.7337C336.806 14.6797 336.667 14.6292 336.507 14.5822C336.348 14.5352 336.166 14.5117 335.963 14.5117C335.779 14.5117 335.617 14.5326 335.478 14.5744C335.338 14.6144 335.224 14.671 335.135 14.7441C335.045 14.819 334.977 14.9077 334.931 15.0104C334.885 15.1114 334.861 15.2219 334.861 15.342C334.861 15.5074 334.905 15.6466 334.993 15.7598C335.08 15.8712 335.194 15.9695 335.333 16.0548C335.472 16.1401 335.631 16.2167 335.81 16.2846C335.99 16.3525 336.172 16.423 336.356 16.4961C336.542 16.5675 336.725 16.6475 336.906 16.7363C337.088 16.8268 337.249 16.9356 337.388 17.0627C337.527 17.1897 337.64 17.3429 337.726 17.5222C337.81 17.6997 337.852 17.9121 337.852 18.1593ZM344.464 19.7206C344.464 19.7537 344.456 19.7824 344.44 19.8068C344.423 19.8294 344.394 19.8494 344.355 19.8668C344.315 19.8842 344.261 19.8973 344.191 19.906C344.122 19.9147 344.034 19.9191 343.929 19.9191C343.82 19.9191 343.73 19.9147 343.661 19.906C343.591 19.8973 343.537 19.8842 343.497 19.8668C343.458 19.8494 343.429 19.8294 343.411 19.8068C343.395 19.7824 343.387 19.7537 343.387 19.7206V16.3603C343.387 16.0331 343.361 15.7702 343.307 15.5718C343.255 15.3716 343.179 15.1993 343.079 15.0548C342.979 14.9104 342.85 14.7998 342.691 14.7232C342.53 14.6466 342.345 14.6084 342.136 14.6084C341.866 14.6084 341.597 14.7015 341.327 14.8877C341.055 15.0757 340.771 15.3499 340.475 15.7102V19.7206C340.475 19.7537 340.466 19.7824 340.448 19.8068C340.432 19.8294 340.404 19.8494 340.365 19.8668C340.326 19.8842 340.271 19.8973 340.201 19.906C340.132 19.9147 340.043 19.9191 339.934 19.9191C339.828 19.9191 339.741 19.9147 339.671 19.906C339.601 19.8973 339.546 19.8842 339.505 19.8668C339.462 19.8494 339.433 19.8294 339.419 19.8068C339.403 19.7824 339.395 19.7537 339.395 19.7206V11.2037C339.395 11.1706 339.403 11.141 339.419 11.1149C339.433 11.0888 339.462 11.0679 339.505 11.0522C339.546 11.0348 339.601 11.0218 339.671 11.0131C339.741 11.0044 339.828 11 339.934 11C340.043 11 340.132 11.0044 340.201 11.0131C340.271 11.0218 340.326 11.0348 340.365 11.0522C340.404 11.0679 340.432 11.0888 340.448 11.1149C340.466 11.141 340.475 11.1706 340.475 11.2037V14.6397C340.786 14.3211 341.097 14.0844 341.41 13.9295C341.724 13.7746 342.04 13.6971 342.358 13.6971C342.751 13.6971 343.082 13.7615 343.35 13.8903C343.618 14.0209 343.835 14.1941 344.001 14.4099C344.167 14.6275 344.286 14.8816 344.357 15.1723C344.429 15.463 344.464 15.8146 344.464 16.2272V19.7206ZM350.871 19.7258C350.871 19.7781 350.853 19.8164 350.817 19.8407C350.784 19.8668 350.735 19.886 350.673 19.8982C350.612 19.9121 350.523 19.9191 350.405 19.9191C350.292 19.9191 350.202 19.9121 350.134 19.8982C350.066 19.886 350.017 19.8668 349.987 19.8407C349.956 19.8164 349.941 19.7781 349.941 19.7258V19.154C349.684 19.4204 349.397 19.6284 349.081 19.7781C348.765 19.926 348.43 20 348.076 20C347.767 20 347.487 19.9608 347.235 19.8825C346.985 19.8042 346.772 19.691 346.595 19.5431C346.418 19.3934 346.28 19.2106 346.182 18.9948C346.084 18.7772 346.035 18.53 346.035 18.2533C346.035 17.9312 346.103 17.651 346.238 17.4125C346.374 17.1741 346.568 16.9765 346.82 16.8198C347.073 16.6632 347.383 16.5457 347.75 16.4674C348.116 16.3873 348.527 16.3473 348.985 16.3473H349.797V15.9034C349.797 15.6823 349.772 15.4865 349.724 15.3159C349.676 15.1453 349.599 15.0044 349.494 14.893C349.387 14.7798 349.248 14.6945 349.079 14.6371C348.907 14.5796 348.697 14.5509 348.449 14.5509C348.183 14.5509 347.944 14.5814 347.733 14.6423C347.523 14.705 347.337 14.7737 347.176 14.8486C347.017 14.9217 346.884 14.9896 346.777 15.0522C346.671 15.1131 346.592 15.1436 346.538 15.1436C346.504 15.1436 346.474 15.1349 346.447 15.1175C346.422 15.1018 346.4 15.0766 346.38 15.0418C346.361 15.007 346.346 14.9634 346.337 14.9112C346.329 14.8573 346.324 14.799 346.324 14.7363C346.324 14.6301 346.331 14.5457 346.345 14.483C346.362 14.4221 346.399 14.3638 346.458 14.3081C346.517 14.2524 346.618 14.188 346.761 14.1149C346.905 14.04 347.072 13.9722 347.259 13.9112C347.447 13.8486 347.651 13.7972 347.873 13.7572C348.096 13.7171 348.321 13.6971 348.548 13.6971C348.971 13.6971 349.331 13.7441 349.628 13.8381C349.924 13.9304 350.164 14.067 350.346 14.248C350.53 14.4291 350.663 14.6536 350.745 14.9217C350.829 15.188 350.871 15.4996 350.871 15.8564V19.7258ZM349.797 17.107H348.875C348.578 17.107 348.321 17.1314 348.103 17.1802C347.885 17.2289 347.704 17.3011 347.559 17.3969C347.416 17.4926 347.311 17.6075 347.243 17.7415C347.175 17.8755 347.141 18.0296 347.141 18.2037C347.141 18.5013 347.239 18.738 347.433 18.9138C347.626 19.0896 347.898 19.1775 348.248 19.1775C348.53 19.1775 348.793 19.1079 349.036 18.9687C349.277 18.8277 349.53 18.6127 349.797 18.3238V17.107ZM357.897 19.7206C357.897 19.7537 357.889 19.7833 357.872 19.8094C357.858 19.8355 357.832 19.8555 357.795 19.8695C357.757 19.8851 357.708 19.8973 357.647 19.906C357.587 19.9147 357.513 19.9191 357.425 19.9191C357.334 19.9191 357.257 19.9147 357.195 19.906C357.134 19.8973 357.084 19.8851 357.045 19.8695C357.005 19.8555 356.978 19.8355 356.961 19.8094C356.944 19.7833 356.935 19.7537 356.935 19.7206V18.9608C356.624 19.2881 356.302 19.5431 355.97 19.7258C355.636 19.9086 355.271 20 354.874 20C354.442 20 354.073 19.9182 353.768 19.7546C353.462 19.5909 353.215 19.3699 353.025 19.0914C352.836 18.8146 352.698 18.4883 352.61 18.1123C352.523 17.7346 352.479 17.3377 352.479 16.9217C352.479 16.4291 352.533 15.9843 352.642 15.5875C352.751 15.1889 352.913 14.8494 353.127 14.5692C353.34 14.2889 353.604 14.074 353.92 13.9243C354.236 13.7728 354.602 13.6971 355.016 13.6971C355.361 13.6971 355.676 13.7702 355.962 13.9164C356.248 14.0627 356.53 14.2785 356.809 14.564V11.2298C356.809 11.2002 356.817 11.1715 356.833 11.1436C356.847 11.1158 356.877 11.0949 356.921 11.0809C356.964 11.0653 357.02 11.0522 357.087 11.0418C357.155 11.0313 357.242 11.0261 357.347 11.0261C357.456 11.0261 357.546 11.0313 357.615 11.0418C357.685 11.0522 357.739 11.0653 357.779 11.0809C357.818 11.0949 357.847 11.1158 357.867 11.1436C357.887 11.1715 357.897 11.2002 357.897 11.2298V19.7206ZM356.809 15.6867C356.518 15.3333 356.235 15.0644 355.962 14.8799C355.691 14.6954 355.407 14.6031 355.11 14.6031C354.835 14.6031 354.601 14.6667 354.408 14.7937C354.217 14.9208 354.061 15.0888 353.942 15.2977C353.822 15.5048 353.735 15.7406 353.679 16.0052C353.626 16.2681 353.599 16.5352 353.599 16.8068C353.599 17.0957 353.621 17.3786 353.666 17.6554C353.712 17.9321 353.792 18.1775 353.904 18.3916C354.019 18.6057 354.169 18.7781 354.357 18.9086C354.545 19.0374 354.78 19.1018 355.064 19.1018C355.207 19.1018 355.346 19.0827 355.48 19.0444C355.612 19.0061 355.748 18.9426 355.887 18.8538C356.026 18.765 356.173 18.6493 356.326 18.5065C356.478 18.3638 356.639 18.188 356.809 17.9791V15.6867ZM361.283 19.1854C361.283 19.4865 361.233 19.6876 361.131 19.7885C361.029 19.8877 360.842 19.9373 360.571 19.9373C360.31 19.9373 360.129 19.8886 360.029 19.7911C359.928 19.6936 359.877 19.4978 359.877 19.2037C359.877 18.9025 359.929 18.7015 360.032 18.6005C360.134 18.5013 360.321 18.4517 360.592 18.4517C360.853 18.4517 361.033 18.5004 361.133 18.5979C361.233 18.6954 361.283 18.8912 361.283 19.1854ZM372.007 19.7206C372.007 19.7537 371.998 19.7824 371.98 19.8068C371.962 19.8294 371.933 19.8494 371.894 19.8668C371.855 19.8842 371.8 19.8973 371.731 19.906C371.661 19.9147 371.574 19.9191 371.471 19.9191C371.362 19.9191 371.272 19.9147 371.2 19.906C371.13 19.8973 371.075 19.8842 371.034 19.8668C370.993 19.8494 370.963 19.8294 370.946 19.8068C370.928 19.7824 370.919 19.7537 370.919 19.7206V16.235C370.919 15.9913 370.897 15.7702 370.854 15.5718C370.812 15.3716 370.742 15.1993 370.645 15.0548C370.549 14.9104 370.427 14.7998 370.278 14.7232C370.13 14.6466 369.956 14.6084 369.756 14.6084C369.508 14.6084 369.258 14.7015 369.006 14.8877C368.756 15.0757 368.48 15.3499 368.18 15.7102V19.7206C368.18 19.7537 368.171 19.7824 368.154 19.8068C368.136 19.8294 368.106 19.8494 368.065 19.8668C368.024 19.8842 367.969 19.8973 367.899 19.906C367.828 19.9147 367.74 19.9191 367.636 19.9191C367.536 19.9191 367.45 19.9147 367.377 19.906C367.305 19.8973 367.249 19.8842 367.208 19.8668C367.167 19.8494 367.138 19.8294 367.122 19.8068C367.108 19.7824 367.101 19.7537 367.101 19.7206V16.235C367.101 15.9913 367.076 15.7702 367.028 15.5718C366.98 15.3716 366.908 15.1993 366.811 15.0548C366.716 14.9104 366.596 14.7998 366.449 14.7232C366.303 14.6466 366.13 14.6084 365.93 14.6084C365.681 14.6084 365.43 14.7015 365.177 14.8877C364.923 15.0757 364.648 15.3499 364.351 15.7102V19.7206C364.351 19.7537 364.343 19.7824 364.327 19.8068C364.309 19.8294 364.281 19.8494 364.242 19.8668C364.202 19.8842 364.148 19.8973 364.078 19.906C364.008 19.9147 363.919 19.9191 363.81 19.9191C363.705 19.9191 363.617 19.9147 363.548 19.906C363.478 19.8973 363.423 19.8842 363.381 19.8668C363.34 19.8494 363.312 19.8294 363.296 19.8068C363.28 19.7824 363.272 19.7537 363.272 19.7206V13.9843C363.272 13.9495 363.279 13.9208 363.293 13.8982C363.306 13.8738 363.331 13.852 363.371 13.8329C363.41 13.8138 363.46 13.8016 363.521 13.7963C363.582 13.7894 363.663 13.7859 363.765 13.7859C363.859 13.7859 363.939 13.7894 364.003 13.7963C364.066 13.8016 364.115 13.8138 364.15 13.8329C364.184 13.852 364.209 13.8738 364.225 13.8982C364.24 13.9208 364.247 13.9495 364.247 13.9843V14.7415C364.579 14.3812 364.901 14.1166 365.212 13.9478C365.524 13.7807 365.839 13.6971 366.157 13.6971C366.402 13.6971 366.622 13.725 366.817 13.7807C367.009 13.8346 367.18 13.9121 367.328 14.0131C367.477 14.1123 367.603 14.2306 367.709 14.3681C367.812 14.5074 367.899 14.6614 367.969 14.8303C368.165 14.6232 368.352 14.4473 368.529 14.3029C368.706 14.1584 368.876 14.0409 369.04 13.9504C369.203 13.8616 369.362 13.7972 369.517 13.7572C369.671 13.7171 369.826 13.6971 369.984 13.6971C370.364 13.6971 370.683 13.7615 370.94 13.8903C371.197 14.0209 371.406 14.1941 371.565 14.4099C371.723 14.6275 371.837 14.8816 371.905 15.1723C371.973 15.463 372.007 15.7702 372.007 16.094V19.7206ZM379 16.6031C379 16.7685 378.957 16.8869 378.871 16.9582C378.786 17.0279 378.688 17.0627 378.579 17.0627H374.721C374.721 17.3812 374.754 17.6675 374.82 17.9217C374.884 18.1775 374.993 18.3969 375.147 18.5796C375.299 18.7624 375.497 18.9025 375.742 19C375.987 19.0975 376.285 19.1462 376.637 19.1462C376.917 19.1462 377.166 19.1245 377.384 19.0809C377.602 19.0357 377.791 18.9852 377.95 18.9295C378.109 18.8738 378.239 18.8242 378.341 18.7807C378.444 18.7354 378.522 18.7128 378.574 18.7128C378.604 18.7128 378.631 18.7206 378.654 18.7363C378.679 18.7502 378.698 18.772 378.711 18.8016C378.725 18.8312 378.735 18.8729 378.74 18.9269C378.747 18.9809 378.751 19.0453 378.751 19.1201C378.751 19.1758 378.748 19.2237 378.743 19.2637C378.739 19.3055 378.734 19.342 378.727 19.3734C378.721 19.4047 378.711 19.4334 378.695 19.4595C378.68 19.4856 378.661 19.51 378.636 19.5326C378.612 19.5553 378.542 19.5936 378.424 19.6475C378.306 19.6997 378.153 19.752 377.966 19.8042C377.778 19.8547 377.561 19.8999 377.315 19.9399C377.068 19.98 376.806 20 376.527 20C376.043 20 375.619 19.9347 375.254 19.8042C374.89 19.6719 374.583 19.4761 374.335 19.2167C374.087 18.9574 373.899 18.6327 373.772 18.2428C373.646 17.8512 373.582 17.396 373.582 16.8773C373.582 16.3847 373.647 15.9417 373.778 15.5483C373.91 15.1549 374.099 14.8216 374.346 14.5483C374.592 14.2733 374.89 14.0627 375.238 13.9164C375.586 13.7702 375.977 13.6971 376.409 13.6971C376.872 13.6971 377.265 13.7694 377.588 13.9138C377.913 14.0583 378.181 14.2524 378.392 14.4961C378.601 14.7415 378.754 15.0287 378.853 15.3577C378.951 15.6867 379 16.0383 379 16.4125V16.6031ZM377.912 16.2898C377.926 15.738 377.801 15.3046 377.537 14.9896C377.273 14.6762 376.881 14.5196 376.363 14.5196C376.097 14.5196 375.864 14.5683 375.664 14.6658C375.462 14.7633 375.294 14.893 375.16 15.0548C375.025 15.2167 374.919 15.4047 374.844 15.6188C374.771 15.8329 374.73 16.0566 374.721 16.2898H377.912Z" fill="white"/>
<mask id="mask5_14_2" style="mask-type:luminance" maskUnits="userSpaceOnUse" x="395" y="10" width="11" height="11">
<path d="M405.611 10.1111H395.5V21H405.611V10.1111Z" fill="white"/>
</mask>
<g mask="url(#mask5_14_2)">
<path d="M400.423 15.3474C400.556 15.3474 400.66 15.3064 400.742 15.2198L402.611 13.3376C402.711 13.2374 402.757 13.128 402.757 13.0004C402.757 12.8774 402.707 12.7589 402.611 12.6677L400.742 10.7673C400.66 10.6762 400.556 10.6306 400.423 10.6306C400.177 10.6306 399.981 10.8357 399.981 11.0863C399.981 11.2094 400.027 11.3097 400.104 11.3962L401.194 12.4626C400.979 12.4307 400.761 12.4125 400.542 12.4125C398.286 12.4125 396.481 14.2172 396.481 16.4776C396.481 18.738 398.3 20.5564 400.556 20.5564C402.816 20.5564 404.63 18.738 404.63 16.4776C404.63 16.2042 404.438 16.0082 404.165 16.0082C403.901 16.0082 403.723 16.2042 403.723 16.4776C403.723 18.2367 402.315 19.6495 400.556 19.6495C398.801 19.6495 397.388 18.2367 397.388 16.4776C397.388 14.7048 398.787 13.3012 400.542 13.3012C400.838 13.3012 401.112 13.324 401.353 13.365L400.109 14.5955C400.027 14.6775 399.981 14.7778 399.981 14.9008C399.981 15.1514 400.177 15.3474 400.423 15.3474Z" fill="#E3E3E3"/>
</g>
<path d="M248 10.1666C246.392 10.1666 245.083 11.475 245.083 13.0833V14.8333H244.5C243.857 14.8333 243.333 15.3565 243.333 16V20.6666C243.333 21.31 243.857 21.8333 244.5 21.8333H251.5C252.143 21.8333 252.667 21.31 252.667 20.6666V16C252.667 15.3565 252.143 14.8333 251.5 14.8333H250.917V13.0833C250.917 11.475 249.608 10.1666 248 10.1666ZM251.5 16L251.501 20.6666H244.5V16H251.5ZM246.25 14.8333V13.0833C246.25 12.1185 247.035 11.3333 248 11.3333C248.965 11.3333 249.75 12.1185 249.75 13.0833V14.8333H246.25Z" fill="white"/>
</g>
</g>
</g>
<defs>
<clipPath id="clip0_14_2">
<rect width="644" height="32" fill="white"/>
</clipPath>
</defs>
</svg>
