<svg width="70" height="70" viewBox="0 0 70 70" fill="none" xmlns="http://www.w3.org/2000/svg">
<g clip-path="url(#clip0_4_345)">
<mask id="mask0_4_345" style="mask-type:luminance" maskUnits="userSpaceOnUse" x="0" y="0" width="70" height="70">
<path d="M70 0H0V70H70V0Z" fill="white"/>
</mask>
<g mask="url(#mask0_4_345)">
<mask id="mask1_4_345" style="mask-type:luminance" maskUnits="userSpaceOnUse" x="0" y="0" width="70" height="70">
<path d="M60 0H10C4.47715 0 0 4.47715 0 10V60C0 65.5229 4.47715 70 10 70H60C65.5229 70 70 65.5229 70 60V10C70 4.47715 65.5229 0 60 0Z" fill="white"/>
</mask>
<g mask="url(#mask1_4_345)">
<path d="M60 0H9.99999C4.47714 0 -7.62939e-06 4.47715 -7.62939e-06 10V60C-7.62939e-06 65.5229 4.47714 70 9.99999 70H60C65.5229 70 70 65.5229 70 60V10C70 4.47715 65.5229 0 60 0Z" fill="#00373E"/>
<path d="M94.8573 -15.5184C94.8573 -15.5184 68.4787 -2.95596 73.1606 28.1212C78.4135 62.967 47.9525 77.9223 27.1408 69.308C6.32913 60.6639 7.7851 28.6895 -31.7828 27.7024C-72.2071 26.7154 -80.7145 -13.5443 -80.7145 -13.5443" stroke="white" stroke-opacity="0.2" stroke-width="2" stroke-miterlimit="10"/>
<path d="M64.3677 -24.8806C64.3677 -24.8806 52.9484 1.68003 57.0308 28.0911C61.1418 54.5021 42.671 57.6128 35.3341 54.5021C20.0894 48.1013 17.1489 13.8237 -7.4597 11.6103C-25.959 9.93534 -50.853 23.1857 -64.0423 -6.8744" stroke="white" stroke-opacity="0.2" stroke-width="2" stroke-miterlimit="10"/>
<path d="M52.0634 -13.0358C52.0634 -13.0358 56.1743 14.0931 37.9891 9.24755C17.1489 3.68419 17.4629 -9.35682 -8.91566 2.96633C-18.308 7.36319 -56.1059 8.64934 -48.4835 -15.5184" stroke="#FBF6F6" stroke-opacity="0.2" stroke-width="2" stroke-miterlimit="10"/>
<path d="M38.8741 45.1403C43.2415 45.1403 46.782 39.6766 46.782 32.9368C46.782 26.197 43.2415 20.7333 38.8741 20.7333C34.5067 20.7333 30.9663 26.197 30.9663 32.9368C30.9663 39.6766 34.5067 45.1403 38.8741 45.1403Z" stroke="white" stroke-opacity="0.2" stroke-width="2" stroke-miterlimit="10"/>
</g>
</g>
<g clip-path="url(#clip1_4_345)">
<path d="M32.897 11.0441L11.045 32.8782C9.87019 34.052 9.87019 35.948 11.045 37.1218L32.897 58.9559C34.0718 60.1297 35.9693 60.1297 37.1441 58.9559L46.3064 49.8012C47.3585 48.7499 47.3585 47.0455 46.3064 45.9942C45.2542 44.943 43.5484 44.943 42.4963 45.9942L35.5505 52.9343C35.2581 53.2265 34.8143 53.2265 34.5219 52.9343L17.0715 35.4983C16.7791 35.2061 16.7791 34.7627 17.0715 34.4705L34.5219 17.0345C34.8143 16.7423 35.2581 16.7423 35.5505 17.0345L42.4963 23.9746C43.5484 25.0258 45.2542 25.0258 46.3064 23.9746C47.3585 22.9233 47.3585 21.2189 46.3064 20.1676L37.1451 11.0139C35.9655 9.8655 34.0673 9.8748 32.897 11.0441Z" fill="url(#paint0_linear_4_345)"/>
<path d="M32.897 11.0441L11.045 32.8782C9.87019 34.052 9.87019 35.948 11.045 37.1218L32.897 58.9559C34.0718 60.1297 35.9693 60.1297 37.1441 58.9559L46.3064 49.8012C47.3585 48.7499 47.3585 47.0455 46.3064 45.9942C45.2542 44.943 43.5484 44.943 42.4963 45.9942L35.5505 52.9343C35.2581 53.2265 34.8143 53.2265 34.5219 52.9343L17.0715 35.4983C16.7791 35.2061 16.7791 34.7627 17.0715 34.4705L34.5219 17.0345C35.25 16.4068 36.4379 15.1355 38.1824 14.8381C39.4789 14.6171 40.8963 15.1035 42.4346 16.2972C41.4062 15.2696 39.643 13.5085 37.1451 11.0139C35.9655 9.8655 34.0673 9.8748 32.897 11.0441Z" fill="url(#paint1_linear_4_345)"/>
<path d="M48.4214 43.9636C49.4735 45.0149 51.1793 45.0149 52.2315 43.9636L58.99 37.2107C60.1648 36.0368 60.1648 34.1409 58.9901 32.9672L52.1727 26.1795C51.1181 25.1295 49.4117 25.131 48.359 26.1829C47.3069 27.2342 47.3069 28.9386 48.359 29.9898L52.9635 34.5906C53.2559 34.8828 53.2559 35.3262 52.9635 35.6183L48.4214 40.1567C47.3693 41.208 47.3693 42.9124 48.4214 43.9636Z" fill="url(#paint2_linear_4_345)"/>
<path d="M35.1298 41.0044C38.3883 41.0044 41.0299 38.365 41.0299 35.1092C41.0299 31.8533 38.3883 29.214 35.1298 29.214C31.8713 29.214 29.2298 31.8533 29.2298 35.1092C29.2298 38.365 31.8713 41.0044 35.1298 41.0044Z" fill="url(#paint3_linear_4_345)"/>
</g>
</g>
<defs>
<linearGradient id="paint0_linear_4_345" x1="2303.7" y1="10.1599" x2="4380.28" y2="1278.29" gradientUnits="userSpaceOnUse">
<stop stop-color="#4285EB"/>
<stop offset="1" stop-color="#2EC7FF"/>
</linearGradient>
<linearGradient id="paint1_linear_4_345" x1="2582.23" y1="10.1598" x2="1556.59" y2="5310.94" gradientUnits="userSpaceOnUse">
<stop stop-color="#29CDFF"/>
<stop offset="0.378601" stop-color="#148EFF"/>
<stop offset="1" stop-color="#0A60FF"/>
</linearGradient>
<linearGradient id="paint2_linear_4_345" x1="904.853" y1="-225.779" x2="-429.661" y2="1861.29" gradientUnits="userSpaceOnUse">
<stop stop-color="#FA816E"/>
<stop offset="0.414726" stop-color="#F74A5C"/>
<stop offset="1" stop-color="#F51D2C"/>
</linearGradient>
<linearGradient id="paint3_linear_4_345" x1="833.147" y1="-391.592" x2="389.114" y2="1384.61" gradientUnits="userSpaceOnUse">
<stop stop-color="#FA8E7D"/>
<stop offset="0.512635" stop-color="#F74A5C"/>
<stop offset="1" stop-color="#F51D2C"/>
</linearGradient>
<clipPath id="clip0_4_345">
<rect width="70" height="70" fill="white"/>
</clipPath>
<clipPath id="clip1_4_345">
<rect width="50" height="50" fill="white" transform="translate(10 10)"/>
</clipPath>
</defs>
</svg>
