<svg width="70" height="70" viewBox="0 0 70 70" fill="none" xmlns="http://www.w3.org/2000/svg">
<g clip-path="url(#clip0_3_126)">
<mask id="mask0_3_126" style="mask-type:luminance" maskUnits="userSpaceOnUse" x="0" y="0" width="70" height="70">
<path d="M70 0H0V70H70V0Z" fill="white"/>
</mask>
<g mask="url(#mask0_3_126)">
<mask id="mask1_3_126" style="mask-type:luminance" maskUnits="userSpaceOnUse" x="0" y="0" width="70" height="70">
<path d="M60 0H10C4.47715 0 0 4.47715 0 10V60C0 65.5229 4.47715 70 10 70H60C65.5229 70 70 65.5229 70 60V10C70 4.47715 65.5229 0 60 0Z" fill="white"/>
</mask>
<g mask="url(#mask1_3_126)">
<path d="M60 0H10C4.47715 0 0 4.47715 0 10V60C0 65.5229 4.47715 70 10 70H60C65.5229 70 70 65.5229 70 60V10C70 4.47715 65.5229 0 60 0Z" fill="#654608"/>
<path d="M94.8573 -15.5184C94.8573 -15.5184 68.4787 -2.95596 73.1606 28.1212C78.4135 62.967 47.9525 77.9223 27.1408 69.308C6.3291 60.6639 7.78506 28.6895 -31.7828 27.7024C-72.2071 26.7154 -80.7145 -13.5443 -80.7145 -13.5443" fill="#654608"/>
<path d="M94.8573 -15.5184C94.8573 -15.5184 68.4787 -2.95596 73.1606 28.1212C78.4135 62.967 47.9525 77.9223 27.1408 69.308C6.3291 60.6639 7.78506 28.6895 -31.7828 27.7024C-72.2071 26.7154 -80.7145 -13.5443 -80.7145 -13.5443" stroke="white" stroke-opacity="0.2" stroke-width="2" stroke-miterlimit="10"/>
<path d="M64.3677 -24.8806C64.3677 -24.8806 52.9484 1.68003 57.0308 28.0911C61.1418 54.5021 42.671 57.6128 35.3341 54.5021C20.0894 48.1013 17.1489 13.8237 -7.4597 11.6103C-25.959 9.93534 -50.853 23.1857 -64.0423 -6.8744" fill="#654608"/>
<path d="M64.3677 -24.8806C64.3677 -24.8806 52.9484 1.68003 57.0308 28.0911C61.1418 54.5021 42.671 57.6128 35.3341 54.5021C20.0894 48.1013 17.1489 13.8237 -7.4597 11.6103C-25.959 9.93534 -50.853 23.1857 -64.0423 -6.8744" stroke="white" stroke-opacity="0.2" stroke-width="2" stroke-miterlimit="10"/>
<path d="M52.0634 -13.0358C52.0634 -13.0358 56.1743 14.0931 37.9891 9.24755C17.1489 3.68419 17.4629 -9.35682 -8.91566 2.96633C-18.308 7.36319 -56.1059 8.64934 -48.4835 -15.5184" fill="#654608"/>
<path d="M52.0634 -13.0358C52.0634 -13.0358 56.1743 14.0931 37.9891 9.24755C17.1489 3.68419 17.4629 -9.35682 -8.91566 2.96633C-18.308 7.36319 -56.1059 8.64934 -48.4835 -15.5184" stroke="#FBF6F6" stroke-opacity="0.2" stroke-width="2" stroke-miterlimit="10"/>
<path d="M38.8741 45.1403C43.2415 45.1403 46.782 39.6766 46.782 32.9368C46.782 26.197 43.2415 20.7333 38.8741 20.7333C34.5067 20.7333 30.9663 26.197 30.9663 32.9368C30.9663 39.6766 34.5067 45.1403 38.8741 45.1403Z" fill="#654608" stroke="white" stroke-opacity="0.2" stroke-width="2" stroke-miterlimit="10"/>
</g>
</g>
<g clip-path="url(#clip1_3_126)">
<path d="M55.7105 26.2154L55.0451 26.2042L35.0141 20.2738L35.0021 19.9994V10L55.712 20.357L55.7105 26.2154Z" fill="#D9A741"/>
<path d="M35 20.5987L35.0021 10L14.2908 20.3529L14.288 49.6434L14.2984 49.6486V49.6489L34.9979 60.0005L35.0667 59.9049L35.04 50.0552L34.9994 50.0003L33.7055 49.0777L17.6861 44.3042L17.767 25.7767L35 20.5987Z" fill="#876929"/>
<path d="M38.0973 41.6016L16.9338 44.5788L16.9353 25.4175L38.0987 28.3987L38.0973 41.6016Z" fill="#D9A741"/>
<path d="M27.3728 40.3904L34.9994 41.3613L35.0006 28.6335L27.3743 29.6035L27.3728 40.3904Z" fill="#876929"/>
<path d="M19.6901 39.4128L24.6395 40.0419L24.6409 29.9508L19.6901 30.5814V39.4128Z" fill="#876929"/>
<path d="M16.9353 25.4175L35.0021 19.9993L55.7105 26.2154L38.1118 28.4002L16.9353 25.4175Z" fill="#624A1E"/>
<path d="M55.7002 38.7016L34.9994 41.3141L35.0007 28.6335L55.7002 31.2704V38.7016Z" fill="#D9A741"/>
<path d="M55.6987 43.7919L55.2532 43.8112L35.0629 49.9228L34.9994 50.0003L34.9979 60.0005L55.6987 49.6524V43.7919Z" fill="#D9A741"/>
<path d="M16.9338 44.5788L34.9994 50.0003L55.6987 43.7919L38.0973 41.6016L16.9338 44.5788Z" fill="#FAD791"/>
</g>
</g>
<defs>
<clipPath id="clip0_3_126">
<rect width="70" height="70" fill="white"/>
</clipPath>
<clipPath id="clip1_3_126">
<rect width="50" height="50" fill="white" transform="translate(10 10)"/>
</clipPath>
</defs>
</svg>
