<svg width="70" height="70" viewBox="0 0 70 70" fill="none" xmlns="http://www.w3.org/2000/svg">
<g clip-path="url(#clip0_3_157)">
<mask id="mask0_3_157" style="mask-type:luminance" maskUnits="userSpaceOnUse" x="0" y="0" width="70" height="70">
<path d="M70 0H0V70H70V0Z" fill="white"/>
</mask>
<g mask="url(#mask0_3_157)">
<mask id="mask1_3_157" style="mask-type:luminance" maskUnits="userSpaceOnUse" x="0" y="0" width="70" height="70">
<path d="M60 0H10C4.47715 0 0 4.47715 0 10V60C0 65.5229 4.47715 70 10 70H60C65.5229 70 70 65.5229 70 60V10C70 4.47715 65.5229 0 60 0Z" fill="white"/>
</mask>
<g mask="url(#mask1_3_157)">
<path d="M60 0H9.99999C4.47714 0 -7.62939e-06 4.47715 -7.62939e-06 10V60C-7.62939e-06 65.5229 4.47714 70 9.99999 70H60C65.5229 70 70 65.5229 70 60V10C70 4.47715 65.5229 0 60 0Z" fill="#690033"/>
<path d="M94.8573 -15.5184C94.8573 -15.5184 68.4787 -2.95596 73.1606 28.1212C78.4135 62.967 47.9525 77.9223 27.1408 69.308C6.3291 60.6639 7.78506 28.6895 -31.7828 27.7024C-72.2071 26.7154 -80.7145 -13.5443 -80.7145 -13.5443" fill="#690033"/>
<path d="M94.8573 -15.5184C94.8573 -15.5184 68.4787 -2.95596 73.1606 28.1212C78.4135 62.967 47.9525 77.9223 27.1408 69.308C6.3291 60.6639 7.78506 28.6895 -31.7828 27.7024C-72.2071 26.7154 -80.7145 -13.5443 -80.7145 -13.5443" stroke="white" stroke-opacity="0.2" stroke-width="2" stroke-miterlimit="10"/>
<path d="M64.3677 -24.8806C64.3677 -24.8806 52.9484 1.68003 57.0308 28.0911C61.1418 54.5021 42.671 57.6128 35.3341 54.5021C20.0894 48.1013 17.1489 13.8237 -7.4597 11.6103C-25.959 9.93534 -50.853 23.1857 -64.0423 -6.8744" fill="#690033"/>
<path d="M64.3677 -24.8806C64.3677 -24.8806 52.9484 1.68003 57.0308 28.0911C61.1418 54.5021 42.671 57.6128 35.3341 54.5021C20.0894 48.1013 17.1489 13.8237 -7.4597 11.6103C-25.959 9.93534 -50.853 23.1857 -64.0423 -6.8744" stroke="white" stroke-opacity="0.2" stroke-width="2" stroke-miterlimit="10"/>
<path d="M52.0634 -13.0358C52.0634 -13.0358 56.1743 14.0931 37.9891 9.24755C17.1489 3.68419 17.4629 -9.35682 -8.91566 2.96633C-18.308 7.36319 -56.1059 8.64934 -48.4835 -15.5184" fill="#690033"/>
<path d="M52.0634 -13.0358C52.0634 -13.0358 56.1743 14.0931 37.9891 9.24755C17.1489 3.68419 17.4629 -9.35682 -8.91566 2.96633C-18.308 7.36319 -56.1059 8.64934 -48.4835 -15.5184" stroke="#FBF6F6" stroke-opacity="0.2" stroke-width="2" stroke-miterlimit="10"/>
<path d="M38.8741 45.1403C43.2415 45.1403 46.782 39.6766 46.782 32.9368C46.782 26.197 43.2415 20.7333 38.8741 20.7333C34.5067 20.7333 30.9663 26.197 30.9663 32.9368C30.9663 39.6766 34.5067 45.1403 38.8741 45.1403Z" fill="#690033" stroke="white" stroke-opacity="0.2" stroke-width="2" stroke-miterlimit="10"/>
</g>
</g>
<g clip-path="url(#clip1_3_157)">
<path d="M29.3337 55.1426L24.191 53.7014L19.327 48.1551L25.4111 47.9872L29.3337 55.1426Z" fill="#995B80"/>
<path d="M17.4416 51.485L14.5477 50.6745L11.8126 47.555L15.136 47.0085L17.4416 51.485Z" fill="#995B80"/>
<path d="M10.0973 47.1628L13.0553 47.7642L13.4846 47.0089V21.3819L13.0553 20.8837L10.0973 22.5681V47.1628Z" fill="#7B3F65"/>
<path d="M24.4811 23.5619L13.056 20.8837V47.7642L14.7677 47.6051L17.4416 51.485L19.5039 47.165L24.4811 46.7023V23.5619Z" fill="#C17B9D"/>
<path d="M16.7039 48.5473L21.7745 49.5687L22.1084 48.7817V17.284L21.7745 16.571L16.7039 19.1406V48.5473Z" fill="#7B3F65"/>
<path d="M50.707 25.8591L21.7745 16.571V49.5694L25.1249 49.1383L29.3337 55.1426L32.6656 48.1679L50.707 45.8463V25.8591Z" fill="#C17B9D"/>
<path d="M45.4733 59.9012L38.1648 57.8535L31.2564 49.9741L40.2123 49.8831L45.4733 59.9012Z" fill="#995B80"/>
<path d="M27.5274 50.6517L34.9846 52.0947L35.5638 51.5955V10.801L34.9846 10L27.5274 13.7272V50.6517Z" fill="#7B3F65"/>
<path d="M59.9027 22.4578L34.9854 10V52.0947L39.3817 51.2138L45.4733 59.9012L50.707 48.9461L50.7037 48.9457L59.9027 47.1027V22.4578Z" fill="#C17B9D"/>
</g>
</g>
<defs>
<clipPath id="clip0_3_157">
<rect width="70" height="70" fill="white"/>
</clipPath>
<clipPath id="clip1_3_157">
<rect width="50" height="50" fill="white" transform="translate(10 10)"/>
</clipPath>
</defs>
</svg>
