<svg width="70" height="70" viewBox="0 0 70 70" fill="none" xmlns="http://www.w3.org/2000/svg">
<g clip-path="url(#clip0_3_106)">
<mask id="mask0_3_106" style="mask-type:luminance" maskUnits="userSpaceOnUse" x="0" y="0" width="70" height="70">
<path d="M70 0H0V70H70V0Z" fill="white"/>
</mask>
<g mask="url(#mask0_3_106)">
<mask id="mask1_3_106" style="mask-type:luminance" maskUnits="userSpaceOnUse" x="0" y="0" width="70" height="70">
<path d="M60 0H10C4.47715 0 0 4.47715 0 10V60C0 65.5229 4.47715 70 10 70H60C65.5229 70 70 65.5229 70 60V10C70 4.47715 65.5229 0 60 0Z" fill="white"/>
</mask>
<g mask="url(#mask1_3_106)">
<path d="M60 0H10C4.47715 0 0 4.47715 0 10V60C0 65.5229 4.47715 70 10 70H60C65.5229 70 70 65.5229 70 60V10C70 4.47715 65.5229 0 60 0Z" fill="#7C522E"/>
<path d="M94.8573 -15.5184C94.8573 -15.5184 68.4787 -2.95596 73.1606 28.1212C78.4135 62.967 47.9525 77.9223 27.1408 69.308C6.32911 60.6639 7.78507 28.6895 -31.7828 27.7024C-72.2071 26.7154 -80.7145 -13.5443 -80.7145 -13.5443" fill="#7C522E"/>
<path d="M94.8573 -15.5184C94.8573 -15.5184 68.4787 -2.95596 73.1606 28.1212C78.4135 62.967 47.9525 77.9223 27.1408 69.308C6.32911 60.6639 7.78507 28.6895 -31.7828 27.7024C-72.2071 26.7154 -80.7145 -13.5443 -80.7145 -13.5443" stroke="white" stroke-opacity="0.2" stroke-width="2" stroke-miterlimit="10"/>
<path d="M64.3677 -24.8806C64.3677 -24.8806 52.9484 1.68003 57.0308 28.0911C61.1418 54.5021 42.671 57.6128 35.3341 54.5021C20.0894 48.1013 17.1489 13.8237 -7.4597 11.6103C-25.959 9.93534 -50.853 23.1857 -64.0423 -6.8744" fill="#7C522E"/>
<path d="M64.3677 -24.8806C64.3677 -24.8806 52.9484 1.68003 57.0308 28.0911C61.1418 54.5021 42.671 57.6128 35.3341 54.5021C20.0894 48.1013 17.1489 13.8237 -7.4597 11.6103C-25.959 9.93534 -50.853 23.1857 -64.0423 -6.8744" stroke="white" stroke-opacity="0.2" stroke-width="2" stroke-miterlimit="10"/>
<path d="M52.0634 -13.0358C52.0634 -13.0358 56.1743 14.0931 37.9891 9.24755C17.1489 3.68419 17.4629 -9.35682 -8.91566 2.96633C-18.308 7.36319 -56.1059 8.64934 -48.4835 -15.5184" fill="#7C522E"/>
<path d="M52.0634 -13.0358C52.0634 -13.0358 56.1743 14.0931 37.9891 9.24755C17.1489 3.68419 17.4629 -9.35682 -8.91566 2.96633C-18.308 7.36319 -56.1059 8.64934 -48.4835 -15.5184" stroke="#FBF6F6" stroke-opacity="0.2" stroke-width="2" stroke-miterlimit="10"/>
<path d="M38.8741 45.1403C43.2415 45.1403 46.782 39.6766 46.782 32.9368C46.782 26.197 43.2415 20.7333 38.8741 20.7333C34.5067 20.7333 30.9663 26.197 30.9663 32.9368C30.9663 39.6766 34.5067 45.1403 38.8741 45.1403Z" fill="#7C522E" stroke="white" stroke-opacity="0.2" stroke-width="2" stroke-miterlimit="10"/>
</g>
</g>
<path d="M34.9469 36.1563C34.7812 36.3844 34.6406 36.5719 34.5063 36.7625L28.0469 45.9375C26.0469 48.7813 24.0406 51.625 22.0344 54.4687C22.0005 54.5142 21.9573 54.5519 21.9078 54.5793C21.8582 54.6068 21.8034 54.6234 21.7469 54.6281C18.9156 54.6063 16.0812 54.575 13.25 54.5406C13.2187 54.5406 13.1875 54.5313 13.125 54.5219C13.1475 54.465 13.1736 54.4097 13.2031 54.3563C18.8731 45.8688 24.546 37.3834 30.2219 28.9C30.5094 28.4688 30.8094 28.0469 31.0812 27.6094C31.1502 27.4926 31.1704 27.3534 31.1375 27.2219C30.6156 25.6125 30.0813 24.0031 29.55 22.4C29.3219 21.7125 29.0813 21.025 28.8688 20.3375C28.8 20.1125 28.6844 20.0438 28.45 20.0469C26.6687 20.0531 24.9 20.05 23.125 20.05C22.7875 20.05 22.7875 20.05 22.7875 19.7281C22.7875 17.6219 22.7875 15.5188 22.7813 13.4125C22.7813 13.1781 22.8625 13.125 23.0906 13.125C26.6625 13.1313 30.2344 13.1313 33.8094 13.125C33.8923 13.114 33.9765 13.1328 34.0469 13.1781C34.1154 13.2224 34.1655 13.2902 34.1875 13.3688C38.268 23.2762 42.3514 33.1824 46.4375 43.0875C47.1187 44.7438 47.8063 46.3969 48.4813 48.0563C48.5625 48.2563 48.6469 48.2938 48.8563 48.2313C50.7313 47.675 52.6063 47.1313 54.4813 46.5719C54.7156 46.5 54.8 46.5469 54.875 46.7719C55.5125 48.7094 56.1625 50.6438 56.8125 52.5781L56.875 52.8063C56.7406 52.8531 56.6156 52.9063 56.4875 52.9406L43.7219 56.8469C43.5188 56.9094 43.4563 56.8469 43.3906 56.6781L39.4844 47.1531L35.6531 37.8281L35.0813 36.425C35.05 36.3438 35.0094 36.2781 34.9469 36.1563Z" fill="#FA7E14"/>
</g>
<defs>
<clipPath id="clip0_3_106">
<rect width="70" height="70" fill="white"/>
</clipPath>
</defs>
</svg>
