<svg width="70" height="70" viewBox="0 0 70 70" fill="none" xmlns="http://www.w3.org/2000/svg">
<g clip-path="url(#clip0_4_372)">
<mask id="mask0_4_372" style="mask-type:luminance" maskUnits="userSpaceOnUse" x="0" y="0" width="70" height="70">
<path d="M70 0H0V70H70V0Z" fill="white"/>
</mask>
<g mask="url(#mask0_4_372)">
<mask id="mask1_4_372" style="mask-type:luminance" maskUnits="userSpaceOnUse" x="0" y="0" width="70" height="70">
<path d="M60 0H10C4.47715 0 0 4.47715 0 10V60C0 65.5229 4.47715 70 10 70H60C65.5229 70 70 65.5229 70 60V10C70 4.47715 65.5229 0 60 0Z" fill="white"/>
</mask>
<g mask="url(#mask1_4_372)">
<path d="M60 0H10C4.47715 0 0 4.47715 0 10V60C0 65.5229 4.47715 70 10 70H60C65.5229 70 70 65.5229 70 60V10C70 4.47715 65.5229 0 60 0Z" fill="#1F4800"/>
<path d="M94.8573 -15.5184C94.8573 -15.5184 68.4787 -2.95596 73.1606 28.1212C78.4135 62.967 47.9525 77.9223 27.1408 69.308C6.32914 60.6639 7.7851 28.6895 -31.7828 27.7024C-72.2071 26.7154 -80.7145 -13.5443 -80.7145 -13.5443" stroke="white" stroke-opacity="0.2" stroke-width="2" stroke-miterlimit="10"/>
<path d="M64.3677 -24.8806C64.3677 -24.8806 52.9484 1.68003 57.0308 28.0911C61.1418 54.5021 42.671 57.6128 35.3341 54.5021C20.0894 48.1013 17.1489 13.8237 -7.4597 11.6103C-25.959 9.93534 -50.853 23.1857 -64.0423 -6.8744" stroke="white" stroke-opacity="0.2" stroke-width="2" stroke-miterlimit="10"/>
<path d="M52.0634 -13.0358C52.0634 -13.0358 56.1743 14.0931 37.9891 9.24755C17.1489 3.68419 17.4629 -9.35682 -8.91566 2.96633C-18.308 7.36319 -56.1059 8.64934 -48.4835 -15.5184" stroke="#FBF6F6" stroke-opacity="0.2" stroke-width="2" stroke-miterlimit="10"/>
<path d="M38.8741 45.1403C43.2415 45.1403 46.782 39.6766 46.782 32.9368C46.782 26.197 43.2415 20.7333 38.8741 20.7333C34.5067 20.7333 30.9663 26.197 30.9663 32.9368C30.9663 39.6766 34.5067 45.1403 38.8741 45.1403Z" stroke="white" stroke-opacity="0.2" stroke-width="2" stroke-miterlimit="10"/>
</g>
</g>
<g clip-path="url(#clip1_4_372)">
<path d="M60 10H10V60H60V10Z" fill="url(#paint0_linear_4_372)"/>
<path fill-rule="evenodd" clip-rule="evenodd" d="M48.0224 36.8079L48.2624 35.1179C50.4756 36.4435 50.5043 36.991 50.5037 37.006C50.4999 37.0091 50.1224 37.3241 48.0224 36.8079ZM46.8081 36.4704C42.9831 35.3129 37.6562 32.8691 35.5006 31.8504C35.5006 31.8416 35.5031 31.8335 35.5031 31.8248C35.5031 30.9966 34.8293 30.3229 34.0006 30.3229C33.1731 30.3229 32.4993 30.9966 32.4993 31.8248C32.4993 32.6529 33.1731 33.3266 34.0006 33.3266C34.3643 33.3266 34.6943 33.191 34.9549 32.9754C37.4912 34.176 42.7768 36.5841 46.6299 37.7216L45.1062 48.4754C45.1018 48.5048 45.0999 48.5341 45.0999 48.5635C45.0999 49.5104 40.9081 51.2498 34.0587 51.2498C27.1368 51.2498 22.9006 49.5104 22.9006 48.5635C22.9006 48.5348 22.8987 48.5066 22.8949 48.4785L19.7112 25.2241C22.4668 27.121 28.3937 28.1248 34.0624 28.1248C39.7224 28.1248 45.6393 27.1248 48.4006 25.2335L46.8081 36.4704ZM19.3749 22.7985C19.4199 21.976 24.1462 18.7498 34.0624 18.7498C43.9774 18.7498 48.7043 21.9754 48.7499 22.7985V23.0791C48.2062 24.9235 42.0812 26.8748 34.0624 26.8748C26.0299 26.8748 19.9018 24.9173 19.3749 23.0704V22.7985ZM49.9999 22.8123C49.9999 20.6466 43.7912 17.4998 34.0624 17.4998C24.3337 17.4998 18.1249 20.6466 18.1249 22.8123L18.1837 23.2835L21.6512 48.611C21.7343 51.4435 29.2881 52.4998 34.0587 52.4998C39.9787 52.4998 46.2681 51.1385 46.3493 48.6129L47.8468 38.0523C48.6799 38.2516 49.3656 38.3535 49.9162 38.3535C50.6556 38.3535 51.1556 38.1729 51.4587 37.8116C51.7074 37.5154 51.8024 37.1566 51.7312 36.7748C51.5693 35.9098 50.5424 34.9773 48.4512 33.7841L49.9362 23.3079L49.9999 22.8123Z" fill="white"/>
</g>
</g>
<defs>
<linearGradient id="paint0_linear_4_372" x1="10" y1="5010" x2="5010" y2="10" gradientUnits="userSpaceOnUse">
<stop stop-color="#1B660F"/>
<stop offset="1" stop-color="#6CAE3E"/>
</linearGradient>
<clipPath id="clip0_4_372">
<rect width="70" height="70" fill="white"/>
</clipPath>
<clipPath id="clip1_4_372">
<rect width="50" height="50" fill="white" transform="translate(10 10)"/>
</clipPath>
</defs>
</svg>
