<svg width="70" height="70" viewBox="0 0 70 70" fill="none" xmlns="http://www.w3.org/2000/svg">
<g clip-path="url(#clip0_3_315)">
<mask id="mask0_3_315" style="mask-type:luminance" maskUnits="userSpaceOnUse" x="0" y="0" width="70" height="70">
<path d="M70 0H0V70H70V0Z" fill="white"/>
</mask>
<g mask="url(#mask0_3_315)">
<mask id="mask1_3_315" style="mask-type:luminance" maskUnits="userSpaceOnUse" x="0" y="0" width="70" height="70">
<path d="M60 0H10C4.47715 0 0 4.47715 0 10V60C0 65.5229 4.47715 70 10 70H60C65.5229 70 70 65.5229 70 60V10C70 4.47715 65.5229 0 60 0Z" fill="white"/>
</mask>
<g mask="url(#mask1_3_315)">
<path d="M60 0H10C4.47715 0 0 4.47715 0 10V60C0 65.5229 4.47715 70 10 70H60C65.5229 70 70 65.5229 70 60V10C70 4.47715 65.5229 0 60 0Z" fill="#024A70"/>
<path d="M94.8573 -15.5184C94.8573 -15.5184 68.4787 -2.95596 73.1606 28.1212C78.4135 62.967 47.9525 77.9223 27.1408 69.308C6.32913 60.6639 7.7851 28.6895 -31.7828 27.7024C-72.2071 26.7154 -80.7145 -13.5443 -80.7145 -13.5443" stroke="white" stroke-opacity="0.2" stroke-width="2" stroke-miterlimit="10"/>
<path d="M64.3677 -24.8806C64.3677 -24.8806 52.9484 1.68003 57.0308 28.0911C61.1418 54.5021 42.671 57.6128 35.3341 54.5021C20.0894 48.1013 17.1489 13.8237 -7.4597 11.6103C-25.959 9.93534 -50.853 23.1857 -64.0423 -6.8744" stroke="white" stroke-opacity="0.2" stroke-width="2" stroke-miterlimit="10"/>
<path d="M52.0634 -13.0358C52.0634 -13.0358 56.1743 14.0931 37.9891 9.24755C17.1489 3.68419 17.4629 -9.35682 -8.91566 2.96633C-18.308 7.36319 -56.1059 8.64934 -48.4835 -15.5184" stroke="#FBF6F6" stroke-opacity="0.2" stroke-width="2" stroke-miterlimit="10"/>
<path d="M38.8741 45.1403C43.2415 45.1403 46.782 39.6766 46.782 32.9368C46.782 26.197 43.2415 20.7333 38.8741 20.7333C34.5067 20.7333 30.9663 26.197 30.9663 32.9368C30.9663 39.6766 34.5067 45.1403 38.8741 45.1403Z" stroke="white" stroke-opacity="0.2" stroke-width="2" stroke-miterlimit="10"/>
</g>
</g>
<path d="M35 56.875C47.0812 56.875 56.875 47.0812 56.875 35C56.875 22.9188 47.0812 13.125 35 13.125C22.9188 13.125 13.125 22.9188 13.125 35C13.125 47.0812 22.9188 56.875 35 56.875Z" fill="#1794D4"/>
<path d="M38.125 20.9375H35V24.0625H38.125V20.9375Z" fill="white"/>
<path d="M25.625 25.625H28.75V28.75H25.625V25.625Z" fill="white"/>
<path d="M19.3774 36.4709C19.6444 41.0042 22.3442 47.5 31.875 47.5C42.5 47.5 47.2395 39.6875 48.2812 35.7812C49.5833 35.7812 52.5 35 53.75 31.875C52.9687 31.0938 49.8437 31.0938 48.2812 31.875C48.2812 30.625 47.5 27.9688 45.9375 27.1875C44.8958 28.2292 43.2812 30.9375 45.1562 33.4375C44.375 35 42.2917 35 41.25 35H20.8483C20.021 35 19.3288 35.645 19.3774 36.4709Z" fill="white"/>
<path d="M24.0625 30.3125H20.9375V33.4375H24.0625V30.3125Z" fill="white"/>
<path d="M25.625 30.3125H28.75V33.4375H25.625V30.3125Z" fill="white"/>
<path d="M33.4375 30.3125H30.3125V33.4375H33.4375V30.3125Z" fill="white"/>
<path d="M35 30.3125H38.125V33.4375H35V30.3125Z" fill="white"/>
<path d="M42.8125 30.3125H39.6875V33.4375H42.8125V30.3125Z" fill="white"/>
<path d="M33.4375 25.625H30.3125V28.75H33.4375V25.625Z" fill="white"/>
<path d="M35 25.625H38.125V28.75H35V25.625Z" fill="white"/>
</g>
<defs>
<clipPath id="clip0_3_315">
<rect width="70" height="70" fill="white"/>
</clipPath>
</defs>
</svg>
