<svg width="70" height="70" viewBox="0 0 70 70" fill="none" xmlns="http://www.w3.org/2000/svg">
<g clip-path="url(#clip0_8_473)">
<mask id="mask0_8_473" style="mask-type:luminance" maskUnits="userSpaceOnUse" x="0" y="0" width="70" height="70">
<path d="M70 0H0V70H70V0Z" fill="white"/>
</mask>
<g mask="url(#mask0_8_473)">
<mask id="mask1_8_473" style="mask-type:luminance" maskUnits="userSpaceOnUse" x="0" y="0" width="70" height="70">
<path d="M60 0H10C4.47715 0 0 4.47715 0 10V60C0 65.5229 4.47715 70 10 70H60C65.5229 70 70 65.5229 70 60V10C70 4.47715 65.5229 0 60 0Z" fill="white"/>
</mask>
<g mask="url(#mask1_8_473)">
<path d="M60 0H10C4.47715 0 0 4.47715 0 10V60C0 65.5229 4.47715 70 10 70H60C65.5229 70 70 65.5229 70 60V10C70 4.47715 65.5229 0 60 0Z" fill="#A16A0B"/>
<path d="M94.8573 -15.5184C94.8573 -15.5184 68.4787 -2.95599 73.1606 28.1212C78.4135 62.967 47.9525 77.9223 27.1408 69.308C6.3291 60.6639 7.78506 28.6895 -31.7828 27.7024C-72.2071 26.7154 -80.7145 -13.5443 -80.7145 -13.5443" fill="#A16A0B"/>
<path d="M94.8573 -15.5184C94.8573 -15.5184 68.4787 -2.95599 73.1606 28.1212C78.4135 62.967 47.9525 77.9223 27.1408 69.308C6.3291 60.6639 7.78506 28.6895 -31.7828 27.7024C-72.2071 26.7154 -80.7145 -13.5443 -80.7145 -13.5443" stroke="white" stroke-opacity="0.2" stroke-width="2" stroke-miterlimit="10"/>
<path d="M64.3677 -24.8806C64.3677 -24.8806 52.9484 1.68002 57.0308 28.0911C61.1418 54.5021 42.671 57.6128 35.3341 54.5021C20.0894 48.1013 17.1489 13.8237 -7.4597 11.6103C-25.959 9.93532 -50.853 23.1857 -64.0423 -6.87442" fill="#A16A0B"/>
<path d="M64.3677 -24.8806C64.3677 -24.8806 52.9484 1.68002 57.0308 28.0911C61.1418 54.5021 42.671 57.6128 35.3341 54.5021C20.0894 48.1013 17.1489 13.8237 -7.4597 11.6103C-25.959 9.93532 -50.853 23.1857 -64.0423 -6.87442" stroke="white" stroke-opacity="0.2" stroke-width="2" stroke-miterlimit="10"/>
<path d="M52.0634 -13.0358C52.0634 -13.0358 56.1743 14.0931 37.9891 9.24752C17.1489 3.68416 17.4629 -9.35685 -8.91566 2.9663C-18.308 7.36316 -56.1059 8.64931 -48.4835 -15.5184" fill="#A16A0B"/>
<path d="M52.0634 -13.0358C52.0634 -13.0358 56.1743 14.0931 37.9891 9.24752C17.1489 3.68416 17.4629 -9.35685 -8.91566 2.9663C-18.308 7.36316 -56.1059 8.64931 -48.4835 -15.5184" stroke="#FBF6F6" stroke-opacity="0.2" stroke-width="2" stroke-miterlimit="10"/>
<path d="M38.8741 45.1403C43.2415 45.1403 46.782 39.6766 46.782 32.9368C46.782 26.197 43.2415 20.7333 38.8741 20.7333C34.5067 20.7333 30.9663 26.197 30.9663 32.9368C30.9663 39.6766 34.5067 45.1403 38.8741 45.1403Z" fill="#A16A0B" stroke="white" stroke-opacity="0.2" stroke-width="2" stroke-miterlimit="10"/>
</g>
</g>
<path d="M17.15 48.4375L17.4475 48.0672L31.4825 24.2953L31.5122 24.0437L25.326 13.6687C25.2127 13.479 25.0355 13.3259 24.8195 13.231C24.6034 13.1362 24.3594 13.1044 24.1219 13.1401C23.8845 13.1759 23.6657 13.2774 23.4964 13.4303C23.3271 13.5832 23.216 13.7798 23.1787 13.9922L17.15 48.4375Z" fill="#FFC24A"/>
<path d="M17.325 48.1562L17.549 47.7656L31.4387 24.2406L25.2682 13.825C25.1665 13.6438 25.0017 13.497 24.7987 13.4065C24.5956 13.316 24.3652 13.2867 24.1419 13.3229C23.9186 13.3592 23.7144 13.459 23.56 13.6076C23.4057 13.7561 23.3093 13.9453 23.2855 14.1469L17.325 48.1562Z" fill="#FFA712"/>
<path d="M36.022 31.8906L40.628 27.6719L36.0202 19.8266C35.9188 19.6577 35.768 19.5166 35.5839 19.4182C35.3998 19.3198 35.1892 19.2679 34.9746 19.2679C34.76 19.2679 34.5495 19.3198 34.3653 19.4182C34.1812 19.5166 34.0304 19.6577 33.929 19.8266L31.4668 24.0172V24.375L36.022 31.8906Z" fill="#F4BD62"/>
<path d="M35.9398 31.7187L40.418 27.625L35.9398 20C35.8665 19.8349 35.7413 19.6923 35.5792 19.5894C35.4172 19.4864 35.2253 19.4275 35.0266 19.4198C34.828 19.412 34.631 19.4557 34.4596 19.5456C34.2881 19.6356 34.1494 19.7678 34.0603 19.9265L31.5858 24.1906L31.5123 24.4078L35.9398 31.7187Z" fill="#FFA50E"/>
<path d="M17.1535 48.4391L17.2883 48.3172L17.7765 48.1406L35.7315 32.1688L35.959 31.6156L31.4807 23.9938L17.1535 48.4391Z" fill="#F6820C"/>
<path d="M36.596 56.4938L52.85 48.4016L48.2055 22.8844C48.1722 22.7045 48.084 22.5363 47.9507 22.3982C47.8173 22.2601 47.644 22.1575 47.4496 22.1017C47.2552 22.0458 47.0473 22.0389 46.8488 22.0816C46.6503 22.1243 46.4688 22.215 46.3242 22.3438L17.15 48.4375L33.3077 56.4922C33.8101 56.7425 34.3758 56.8739 34.951 56.8739C35.5262 56.8739 36.0919 56.7425 36.5942 56.4922" fill="#FDE068"/>
<path d="M52.7012 48.3344L48.0952 23.0094C48.0871 22.8373 48.022 22.6713 47.9081 22.5323C47.7943 22.3933 47.6368 22.2876 47.4556 22.2286C47.2744 22.1695 47.0777 22.1598 46.8903 22.2006C46.703 22.2414 46.5334 22.3309 46.403 22.4578L17.325 48.3891L33.3042 56.3578C33.8026 56.6061 34.3637 56.7364 34.9344 56.7364C35.505 56.7364 36.0662 56.6061 36.5645 56.3578L52.7012 48.3344Z" fill="#FCCA3F"/>
<path d="M36.596 56.25C36.0937 56.5003 35.528 56.6316 34.9527 56.6316C34.3775 56.6316 33.8118 56.5003 33.3095 56.25L17.283 48.3156L17.15 48.4375L33.3077 56.4922C33.8101 56.7424 34.3758 56.8738 34.951 56.8738C35.5262 56.8738 36.0919 56.7424 36.5942 56.4922L52.85 48.4015L52.8097 48.1828L36.596 56.25Z" fill="#EEAB37"/>
</g>
<defs>
<clipPath id="clip0_8_473">
<rect width="70" height="70" fill="white"/>
</clipPath>
</defs>
</svg>
