<svg width="70" height="70" viewBox="0 0 70 70" fill="none" xmlns="http://www.w3.org/2000/svg">
<g clip-path="url(#clip0_4_434)">
<mask id="mask0_4_434" style="mask-type:luminance" maskUnits="userSpaceOnUse" x="0" y="0" width="70" height="70">
<path d="M70 0H0V70H70V0Z" fill="white"/>
</mask>
<g mask="url(#mask0_4_434)">
<mask id="mask1_4_434" style="mask-type:luminance" maskUnits="userSpaceOnUse" x="0" y="0" width="70" height="70">
<path d="M60 0H10C4.47715 0 0 4.47715 0 10V60C0 65.5229 4.47715 70 10 70H60C65.5229 70 70 65.5229 70 60V10C70 4.47715 65.5229 0 60 0Z" fill="white"/>
</mask>
<g mask="url(#mask1_4_434)">
<path d="M60 0H10C4.47715 0 0 4.47715 0 10V60C0 65.5229 4.47715 70 10 70H60C65.5229 70 70 65.5229 70 60V10C70 4.47715 65.5229 0 60 0Z" fill="#202D36"/>
<path d="M94.8573 -15.5184C94.8573 -15.5184 68.4787 -2.95596 73.1606 28.1212C78.4135 62.967 47.9525 77.9223 27.1408 69.308C6.32914 60.6639 7.7851 28.6895 -31.7828 27.7024C-72.2071 26.7154 -80.7145 -13.5443 -80.7145 -13.5443" stroke="white" stroke-opacity="0.2" stroke-width="2" stroke-miterlimit="10"/>
<path d="M64.3677 -24.8806C64.3677 -24.8806 52.9484 1.68002 57.0308 28.0911C61.1418 54.5021 42.671 57.6128 35.3341 54.5021C20.0894 48.1013 17.1489 13.8237 -7.4597 11.6103C-25.959 9.93532 -50.853 23.1857 -64.0423 -6.87442" stroke="white" stroke-opacity="0.2" stroke-width="2" stroke-miterlimit="10"/>
<path d="M52.0634 -13.0358C52.0634 -13.0358 56.1743 14.0931 37.9891 9.24755C17.1489 3.68419 17.4629 -9.35682 -8.91566 2.96633C-18.308 7.36319 -56.1059 8.64934 -48.4835 -15.5184" stroke="#FBF6F6" stroke-opacity="0.2" stroke-width="2" stroke-miterlimit="10"/>
<path d="M38.8741 45.1403C43.2415 45.1403 46.782 39.6766 46.782 32.9368C46.782 26.197 43.2415 20.7333 38.8741 20.7333C34.5067 20.7333 30.9663 26.197 30.9663 32.9368C30.9663 39.6766 34.5067 45.1403 38.8741 45.1403Z" stroke="white" stroke-opacity="0.2" stroke-width="2" stroke-miterlimit="10"/>
</g>
</g>
<g clip-path="url(#clip1_4_434)">
<path d="M56.0251 48.3226C53.3066 48.2548 51.1998 48.5268 49.4327 49.2742C48.923 49.478 48.1074 49.4782 48.0394 50.1237C48.3114 50.3957 48.3453 50.8374 48.5832 51.2111C48.9913 51.8905 49.7045 52.8083 50.3503 53.2841C51.0638 53.8277 51.7775 54.3713 52.5249 54.8471C53.8502 55.6627 55.3454 56.1383 56.6367 56.9539C57.3845 57.4293 58.1317 58.0413 58.8793 58.5511C59.2532 58.8226 59.4909 59.2646 59.9667 59.4345V59.3326C59.7288 59.0267 59.6608 58.585 59.4231 58.2451C59.0835 57.9053 58.7435 57.5994 58.4037 57.2596C57.4182 55.9345 56.195 54.7791 54.8696 53.8277C53.7824 53.0801 51.4036 52.0607 50.9619 50.8033C50.9619 50.8033 50.9278 50.7694 50.8939 50.7355C51.6415 50.6675 52.5249 50.3957 53.2386 50.1917C54.394 49.8858 55.4474 49.9538 56.6367 49.6481C57.1803 49.5121 57.7241 49.3422 58.2677 49.1723V48.8666C57.6563 48.2548 57.2144 47.4394 56.5687 46.8617C54.8357 45.3662 52.9327 43.9053 50.9619 42.6821C49.9083 42.0025 48.5491 41.5606 47.4278 40.9831C47.0202 40.7789 46.3404 40.6772 46.1027 40.3374C45.4909 39.5898 45.1511 38.6044 44.7094 37.7208C43.7243 35.8517 42.7724 33.7792 41.9229 31.8083C41.3115 30.483 40.9376 29.1577 40.19 27.9345C36.6901 22.1578 32.8842 18.6578 27.0395 15.2257C25.7822 14.5122 24.2872 14.2063 22.6901 13.8326C21.8408 13.7985 20.991 13.7307 20.1415 13.6966C19.5979 13.4586 19.0541 12.8131 18.5783 12.5072C16.6418 11.2838 11.6464 8.63358 10.2192 12.1335C9.30164 14.3423 11.5784 16.5169 12.3599 17.6384C12.9378 18.4199 13.6852 19.3033 14.093 20.187C14.3309 20.7642 14.3987 21.3763 14.6366 21.9879C15.1804 23.4827 15.6899 25.148 16.4036 26.5414C16.7776 27.2549 17.1852 28.0025 17.661 28.648C17.9328 29.0217 18.4084 29.1918 18.5105 29.8034C18.0349 30.483 18.0008 31.5024 17.7288 32.352C16.5055 36.1917 16.9814 40.949 18.7143 43.7693C19.2579 44.6186 20.5493 46.488 22.2822 45.7743C23.8114 45.1626 23.4716 43.2257 23.9133 41.5267C24.0154 41.1187 23.9474 40.8471 24.1512 40.5753C24.1513 40.6092 24.1512 40.6433 24.1512 40.6433C24.627 41.5947 25.1026 42.5122 25.5443 43.4636C26.5978 45.1285 28.4326 46.8617 29.9617 48.0171C30.7776 48.6285 31.4231 49.682 32.4425 50.0559V49.9538H32.3745C32.1705 49.6479 31.8648 49.5121 31.593 49.2742C30.9814 48.6626 30.3015 47.915 29.8259 47.2354C28.3989 45.3323 27.1414 43.2257 26.0201 41.0509C25.4765 39.9976 25.0007 38.8421 24.559 37.7888C24.355 37.3808 24.355 36.7694 24.0152 36.5656C23.5054 37.313 22.758 37.9587 22.3841 38.8763C21.7388 40.3374 21.6706 42.1383 21.4327 44.0072C21.2969 44.0413 21.3647 44.0072 21.2967 44.0752C20.2095 43.8032 19.8356 42.6821 19.4278 41.7305C18.4084 39.318 18.2385 35.4441 19.1221 32.6579C19.36 31.9441 20.3794 29.7015 19.9716 29.0219C19.7678 28.3762 19.088 28.0025 18.7143 27.4928C18.2726 26.8471 17.7968 26.0317 17.4911 25.3179C16.6754 23.4151 16.2676 21.3083 15.3842 19.4052C14.9764 18.5216 14.2629 17.6043 13.6852 16.7889C13.0397 15.8714 12.326 15.2257 11.8163 14.1383C11.6466 13.7646 11.4085 13.1529 11.6803 12.7451C11.7483 12.4733 11.8841 12.3714 12.1561 12.3034C12.5978 11.9295 13.8551 12.4053 14.2968 12.6091C15.5541 13.1186 16.6074 13.5947 17.661 14.3082C18.1365 14.648 18.6463 15.2937 19.2579 15.4636H19.9716C21.059 15.7013 22.2822 15.5316 23.3016 15.8373C25.1028 16.4148 26.7336 17.2645 28.1949 18.182C32.6465 21.0024 36.3161 25.0122 38.7969 29.8034C39.2047 30.5847 39.3744 31.2986 39.7483 32.114C40.462 33.7792 41.3454 35.4782 42.0589 37.1092C42.7724 38.7061 43.4521 40.3374 44.4715 41.6627C44.9814 42.376 47.02 42.7499 47.9375 43.1238C48.6171 43.4295 49.6707 43.7015 50.2823 44.0752C51.4375 44.7885 52.5929 45.6044 53.6803 46.3859C54.2241 46.7935 55.9229 47.6432 56.0251 48.3226Z" fill="#30AFD2"/>
<path d="M21.3645 18.7934C20.7868 18.7934 20.3792 18.8616 19.9714 18.9635C19.9714 18.9635 19.9714 18.9976 19.9714 19.0315H20.0394C20.3115 19.5751 20.7868 19.949 21.1266 20.4246C21.3987 20.9682 21.6364 21.5121 21.9084 22.0559C21.9423 22.0218 21.9762 21.9879 21.9762 21.9879C22.4522 21.6478 22.6899 21.1042 22.6899 20.2888C22.4859 20.0509 22.452 19.813 22.2821 19.5751C22.0783 19.2351 21.6363 19.0654 21.3645 18.7934Z" fill="#30AFD2"/>
</g>
</g>
<defs>
<clipPath id="clip0_4_434">
<rect width="70" height="70" fill="white"/>
</clipPath>
<clipPath id="clip1_4_434">
<rect width="50" height="50" fill="white" transform="translate(10 10)"/>
</clipPath>
</defs>
</svg>
