<svg width="70" height="70" viewBox="0 0 70 70" fill="none" xmlns="http://www.w3.org/2000/svg">
<g clip-path="url(#clip0_1_3)">
<mask id="mask0_1_3" style="mask-type:luminance" maskUnits="userSpaceOnUse" x="0" y="0" width="70" height="70">
<path d="M60 0H10C4.47715 0 0 4.47715 0 10V60C0 65.5229 4.47715 70 10 70H60C65.5229 70 70 65.5229 70 60V10C70 4.47715 65.5229 0 60 0Z" fill="white"/>
</mask>
<g mask="url(#mask0_1_3)">
<path d="M60 0H10C4.47715 0 0 4.47715 0 10V60C0 65.5229 4.47715 70 10 70H60C65.5229 70 70 65.5229 70 60V10C70 4.47715 65.5229 0 60 0Z" fill="#AD4A1B"/>
<path d="M94.8572 -15.5184C94.8572 -15.5184 68.4786 -2.95593 73.1606 28.1212C78.4134 62.967 47.9524 77.9223 27.1408 69.308C6.32909 60.6639 7.78505 28.6895 -31.7828 27.7024C-72.2072 26.7154 -80.7145 -13.5443 -80.7145 -13.5443" stroke="white" stroke-opacity="0.2" stroke-width="2" stroke-miterlimit="10"/>
<path d="M64.3677 -24.8806C64.3677 -24.8806 52.9484 1.68004 57.0308 28.0911C61.1417 54.5021 42.671 57.6128 35.3341 54.5021C20.0894 48.1013 17.1489 13.8237 -7.45971 11.6103C-25.959 9.93536 -50.8531 23.1857 -64.0424 -6.87439" stroke="white" stroke-opacity="0.2" stroke-width="2" stroke-miterlimit="10"/>
<path d="M52.0634 -13.0358C52.0634 -13.0358 56.1743 14.0931 37.9891 9.24758C17.1488 3.68422 17.4629 -9.35679 -8.9157 2.96636C-18.3081 7.36322 -56.106 8.64937 -48.4836 -15.5184" stroke="white" stroke-opacity="0.2" stroke-width="2" stroke-miterlimit="10"/>
<path d="M38.8741 45.1403C43.2415 45.1403 46.782 39.6766 46.782 32.9368C46.782 26.197 43.2415 20.7333 38.8741 20.7333C34.5067 20.7333 30.9662 26.197 30.9662 32.9368C30.9662 39.6766 34.5067 45.1403 38.8741 45.1403Z" stroke="white" stroke-opacity="0.2" stroke-width="2" stroke-miterlimit="10"/>
</g>
<path d="M59.7874 37.3014C61.607 23.056 51.5468 10.0323 37.3274 8.21265C23.108 6.39298 10.0323 16.4532 8.21265 30.6726C6.39298 44.892 16.4532 57.9417 30.6726 59.7874C44.918 61.607 57.9417 51.5468 59.7874 37.3014Z" fill="#FF6C37"/>
<path d="M43.3843 24.6937L32.4143 35.6637L29.3208 32.5703C40.1089 21.7822 41.1747 22.718 43.3843 24.6937Z" fill="white"/>
<path d="M32.4143 35.9237C32.3363 35.9237 32.2843 35.8977 32.2323 35.8457L29.1129 32.7522C29.0089 32.6482 29.0089 32.4923 29.1129 32.3883C40.0829 21.4183 41.2267 22.4581 43.5403 24.5377C43.5923 24.5897 43.6183 24.6417 43.6183 24.7197C43.6183 24.7977 43.5923 24.8496 43.5403 24.9016L32.5703 35.8457C32.5443 35.8977 32.4663 35.9237 32.4143 35.9237ZM29.6848 32.5703L32.4143 35.2998L42.9944 24.7197C41.0707 23.004 39.771 22.4841 29.6848 32.5703Z" fill="#FF6C37"/>
<path d="M35.5597 38.8091L32.5703 35.8197L43.5403 24.8496C46.4777 27.8131 42.0845 32.6222 35.5597 38.8091Z" fill="white"/>
<path d="M35.5598 39.0691C35.4818 39.0691 35.4298 39.0431 35.3778 38.9911L32.3883 36.0016C32.3363 35.9496 32.3363 35.8977 32.3363 35.8197C32.3363 35.7417 32.3623 35.6897 32.4143 35.6377L43.3843 24.6677C43.4883 24.5637 43.6443 24.5637 43.7483 24.6677C44.4242 25.2916 44.7881 26.1754 44.7621 27.0852C44.7101 29.9707 41.4347 33.6361 35.7677 38.9911C35.6897 39.0431 35.6117 39.0691 35.5598 39.0691ZM32.9342 35.8197C34.5979 37.5094 35.2998 38.1852 35.5598 38.4452C39.927 34.2859 44.1642 30.0227 44.1902 27.0852C44.2162 26.4094 43.9562 25.7335 43.5143 25.2136L32.9342 35.8197Z" fill="#FF6C37"/>
<path d="M29.3728 32.6482L31.5824 34.8578C31.6344 34.9098 31.6344 34.9618 31.5824 35.0138C31.5564 35.0398 31.5564 35.0398 31.5305 35.0398L26.9553 36.0276C26.7213 36.0536 26.5134 35.8977 26.4614 35.6637C26.4354 35.5337 26.4874 35.4037 26.5653 35.3258L29.2169 32.6742C29.2689 32.6222 29.3468 32.5963 29.3728 32.6482Z" fill="white"/>
<path d="M26.8773 36.2876C26.4873 36.2876 26.2014 35.9756 26.2014 35.5857C26.2014 35.4037 26.2794 35.2218 26.4094 35.0918L29.0609 32.4403C29.2169 32.3103 29.4248 32.3103 29.5808 32.4403L31.7904 34.6499C31.9464 34.7799 31.9464 35.0138 31.7904 35.1698C31.7384 35.2218 31.6864 35.2478 31.6084 35.2738L27.0333 36.2616C26.9813 36.2616 26.9293 36.2876 26.8773 36.2876ZM29.2948 32.9342L26.7473 35.4817C26.6953 35.5337 26.6693 35.6117 26.7213 35.6897C26.7473 35.7677 26.8253 35.7937 26.9033 35.7677L31.1925 34.8318L29.2948 32.9342Z" fill="#FF6C37"/>
<path d="M49.1813 18.6108C47.5176 16.9991 44.84 17.0511 43.2283 18.7407C41.6166 20.4304 41.6686 23.082 43.3583 24.6937C44.7361 26.0194 46.8157 26.2534 48.4534 25.2656L45.4899 22.3021L49.1813 18.6108Z" fill="white"/>
<path d="M46.2698 26.1234C43.8002 26.1234 41.7986 24.1218 41.7986 21.6522C41.7986 19.1827 43.8002 17.181 46.2698 17.181C47.4136 17.181 48.5314 17.623 49.3632 18.4288C49.4152 18.4808 49.4412 18.5328 49.4412 18.6108C49.4412 18.6888 49.4152 18.7407 49.3632 18.7927L45.8539 22.3021L48.6094 25.0576C48.7133 25.1616 48.7133 25.3176 48.6094 25.4215C48.5834 25.4475 48.5834 25.4475 48.5574 25.4735C47.8815 25.8895 47.0756 26.1234 46.2698 26.1234ZM46.2698 17.7269C44.0862 17.7269 42.3185 19.4946 42.3445 21.6782C42.3445 23.8618 44.1122 25.6295 46.2958 25.6035C46.8937 25.6035 47.4916 25.4735 48.0375 25.1876L45.308 22.4841C45.256 22.4321 45.23 22.3801 45.23 22.3021C45.23 22.2241 45.256 22.1721 45.308 22.1201L48.7913 18.6368C48.0895 18.0389 47.2056 17.7269 46.2698 17.7269Z" fill="#FF6C37"/>
<path d="M49.2593 18.6888L49.2073 18.6368L45.4899 22.3021L48.4274 25.2396C48.7133 25.0576 48.9993 24.8496 49.2333 24.6157C50.897 22.978 50.897 20.3265 49.2593 18.6888Z" fill="white"/>
<path d="M48.4534 25.5255C48.3754 25.5255 48.3234 25.4995 48.2714 25.4475L45.308 22.4841C45.256 22.4321 45.23 22.3801 45.23 22.3021C45.23 22.2241 45.256 22.1721 45.308 22.1201L48.9993 18.4288C49.1033 18.3248 49.2593 18.3248 49.3632 18.4288L49.4412 18.4808C51.1829 20.2225 51.1829 23.03 49.4672 24.7977C49.2073 25.0576 48.9213 25.2916 48.6094 25.4735C48.5314 25.4995 48.4794 25.5255 48.4534 25.5255ZM45.8539 22.3021L48.4794 24.9276C48.6874 24.7977 48.8953 24.6157 49.0513 24.4597C50.533 22.978 50.611 20.5604 49.1813 19.0007L45.8539 22.3021Z" fill="#FF6C37"/>
<path d="M43.8262 25.1616C43.2023 24.5377 42.1885 24.5377 41.5646 25.1616L31.7644 34.9618L33.4021 36.5995L43.7742 27.5012C44.4501 26.9293 44.5021 25.9155 43.9302 25.2396C43.8782 25.2136 43.8522 25.1876 43.8262 25.1616Z" fill="white"/>
<path d="M33.3761 36.8595C33.2981 36.8595 33.2461 36.8335 33.1941 36.7815L31.5564 35.1438C31.4525 35.0398 31.4525 34.8838 31.5564 34.7799L41.3567 24.9796C42.0845 24.2518 43.2543 24.2518 43.9822 24.9796C44.7101 25.7075 44.7101 26.8773 43.9822 27.6052C43.9562 27.6311 43.9302 27.6571 43.9042 27.6831L33.5321 36.7815C33.5061 36.8335 33.4541 36.8595 33.3761 36.8595ZM32.1283 34.9618L33.4021 36.2356L43.5923 27.2932C44.1642 26.8253 44.2162 25.9674 43.7482 25.3955C43.2803 24.8237 42.4225 24.7717 41.8506 25.2396C41.8246 25.2656 41.7986 25.2916 41.7466 25.3176L32.1283 34.9618Z" fill="#FF6C37"/>
<path d="M24.2518 46.1138C24.1478 46.1658 24.0958 46.2698 24.1218 46.3738L24.5637 48.2454C24.6677 48.5054 24.5117 48.8173 24.2258 48.8953C24.0178 48.9733 23.7838 48.8953 23.6539 48.7393L20.7944 45.9059L30.1267 36.5735L33.3501 36.6255L35.5337 38.8091C35.0138 39.2511 31.8684 42.2925 24.2518 46.1138Z" fill="white"/>
<path d="M24.0438 49.1553C23.8358 49.1553 23.6279 49.0773 23.4979 48.9213L20.6644 46.0878C20.6124 46.0358 20.5864 45.9838 20.5864 45.9059C20.5864 45.8279 20.6124 45.7759 20.6644 45.7239L29.9967 36.3916C30.0487 36.3396 30.1267 36.3136 30.1787 36.3136L33.4021 36.3656C33.4801 36.3656 33.5321 36.3916 33.5841 36.4436L35.7677 38.6272C35.8197 38.6792 35.8457 38.7571 35.8457 38.8351C35.8457 38.9131 35.8197 38.9651 35.7417 39.0171L35.5597 39.1731C32.8042 41.5906 29.0609 44.0082 24.4077 46.3218L24.8496 48.1674C24.9276 48.5054 24.7717 48.8693 24.4597 49.0513C24.3037 49.1293 24.1738 49.1553 24.0438 49.1553ZM21.1843 45.9059L23.8618 48.5574C23.9398 48.6874 24.0958 48.7393 24.2258 48.6614C24.3557 48.5834 24.4077 48.4274 24.3297 48.2974L23.8878 46.4258C23.8358 46.1918 23.9398 45.9838 24.1478 45.8799C28.7489 43.5663 32.4663 41.1747 35.1958 38.8091L33.2721 36.8855L30.2827 36.8335L21.1843 45.9059Z" fill="#FF6C37"/>
<path d="M18.5848 48.1415L20.8204 45.9059L24.1478 49.2333L18.8447 48.8693C18.6108 48.8433 18.4548 48.6354 18.4808 48.4014C18.4808 48.2974 18.5068 48.1934 18.5848 48.1415Z" fill="white"/>
<path d="M24.1478 49.4672L18.8187 49.1033C18.4288 49.0773 18.1688 48.7393 18.1948 48.3494C18.2208 48.1934 18.2728 48.0375 18.4028 47.9335L20.6384 45.6979C20.7424 45.5939 20.8984 45.5939 21.0023 45.6979L24.3297 49.0253C24.4077 49.1033 24.4337 49.2073 24.3817 49.3112C24.3297 49.4152 24.2517 49.4672 24.1478 49.4672ZM20.8204 46.2698L18.7667 48.3234C18.6888 48.3754 18.6888 48.5054 18.7667 48.5574C18.7927 48.5834 18.8187 48.6094 18.8707 48.6094L23.4719 48.9213L20.8204 46.2698Z" fill="#FF6C37"/>
<path d="M29.2169 37.7693C29.0609 37.7693 28.9569 37.6393 28.9569 37.5094C28.9569 37.4314 28.9829 37.3794 29.0349 37.3274L31.5564 34.8059C31.6604 34.7019 31.8164 34.7019 31.9204 34.8059L33.5581 36.4436C33.6361 36.5215 33.6621 36.5995 33.6361 36.7035C33.6101 36.7815 33.5321 36.8595 33.4281 36.8855L29.2689 37.7693C29.2429 37.7693 29.2169 37.7693 29.2169 37.7693ZM31.7384 35.3518L30.0227 37.0674L32.8302 36.4696L31.7384 35.3518Z" fill="#FF6C37"/>
<path d="M33.3501 36.6255L30.4906 37.2494C30.2827 37.3014 30.0747 37.1714 30.0227 36.9635C29.9967 36.8335 30.0227 36.7035 30.1267 36.5995L31.7124 35.0138L33.3501 36.6255Z" fill="white"/>
<path d="M30.4387 37.5094C30.0747 37.5094 29.7888 37.2234 29.7888 36.8595C29.7888 36.6775 29.8668 36.5215 29.9707 36.3916L31.5565 34.8059C31.6604 34.7019 31.8164 34.7019 31.9204 34.8059L33.5581 36.4436C33.6361 36.5215 33.6621 36.5995 33.6361 36.7035C33.6101 36.7815 33.5321 36.8595 33.4281 36.8855L30.5686 37.5094C30.5166 37.5094 30.4647 37.5094 30.4387 37.5094ZM31.7384 35.3518L30.3347 36.7555C30.2827 36.8075 30.2827 36.8595 30.3087 36.9115C30.3347 36.9635 30.3867 36.9895 30.4647 36.9895L32.8562 36.4696L31.7384 35.3518Z" fill="#FF6C37"/>
<path d="M49.2852 21.1843C49.2332 21.0283 49.0513 20.9504 48.8953 21.0023C48.7393 21.0543 48.6613 21.2363 48.7133 21.3923C48.7133 21.4183 48.7393 21.4443 48.7393 21.4703C48.8953 21.7822 48.8433 22.1721 48.6353 22.4581C48.5314 22.5881 48.5574 22.77 48.6613 22.874C48.7913 22.978 48.9733 22.952 49.0773 22.822C49.4672 22.3281 49.5452 21.7042 49.2852 21.1843Z" fill="#FF6C37"/>
</g>
<defs>
<clipPath id="clip0_1_3">
<rect width="70" height="70" fill="white"/>
</clipPath>
</defs>
</svg>
