<svg width="70" height="70" viewBox="0 0 70 70" fill="none" xmlns="http://www.w3.org/2000/svg">
<g clip-path="url(#clip0_12_503)">
<mask id="mask0_12_503" style="mask-type:luminance" maskUnits="userSpaceOnUse" x="0" y="0" width="70" height="70">
<path d="M70 0H0V70H70V0Z" fill="white"/>
</mask>
<g mask="url(#mask0_12_503)">
<mask id="mask1_12_503" style="mask-type:luminance" maskUnits="userSpaceOnUse" x="0" y="0" width="70" height="70">
<path d="M60 0H10C4.47715 0 0 4.47715 0 10V60C0 65.5229 4.47715 70 10 70H60C65.5229 70 70 65.5229 70 60V10C70 4.47715 65.5229 0 60 0Z" fill="white"/>
</mask>
<g mask="url(#mask1_12_503)">
<path d="M60 0H10C4.47715 0 0 4.47715 0 10V60C0 65.5229 4.47715 70 10 70H60C65.5229 70 70 65.5229 70 60V10C70 4.47715 65.5229 0 60 0Z" fill="#500A0A"/>
<path d="M94.8573 -15.5184C94.8573 -15.5184 68.4787 -2.95599 73.1606 28.1212C78.4135 62.967 47.9525 77.9223 27.1408 69.308C6.32913 60.6639 7.7851 28.6895 -31.7828 27.7024C-72.2071 26.7154 -80.7145 -13.5443 -80.7145 -13.5443" stroke="white" stroke-opacity="0.2" stroke-width="2" stroke-miterlimit="10"/>
<path d="M64.3677 -24.8806C64.3677 -24.8806 52.9484 1.68002 57.0308 28.0911C61.1418 54.5021 42.671 57.6128 35.3341 54.5021C20.0894 48.1013 17.1489 13.8237 -7.4597 11.6103C-25.959 9.93532 -50.853 23.1857 -64.0423 -6.87442" stroke="white" stroke-opacity="0.2" stroke-width="2" stroke-miterlimit="10"/>
<path d="M52.0634 -13.0358C52.0634 -13.0358 56.1743 14.0931 37.9891 9.24752C17.1489 3.68416 17.4629 -9.35685 -8.91566 2.9663C-18.308 7.36316 -56.1059 8.64931 -48.4835 -15.5184" stroke="#FBF6F6" stroke-opacity="0.2" stroke-width="2" stroke-miterlimit="10"/>
<path d="M38.8741 45.1403C43.2415 45.1403 46.782 39.6766 46.782 32.9368C46.782 26.197 43.2415 20.7333 38.8741 20.7333C34.5067 20.7333 30.9663 26.197 30.9663 32.9368C30.9663 39.6766 34.5067 45.1403 38.8741 45.1403Z" stroke="white" stroke-opacity="0.2" stroke-width="2" stroke-miterlimit="10"/>
</g>
</g>
<path d="M58.041 46.5124C55.3727 47.9032 41.55 53.5866 38.6071 55.1206C35.6645 56.6551 34.0297 56.6402 31.705 55.5289C29.3803 54.4175 14.6705 48.4757 12.0208 47.2093C10.6963 46.5762 10 46.042 10 45.5373V40.4835C10 40.4835 29.1502 36.3144 32.2419 35.2054C35.3334 34.0962 36.4061 34.0561 39.037 35.0198C41.6682 35.9837 57.3997 38.8221 60 39.7745C60 39.7745 59.9988 44.2883 59.9988 44.7568C59.9992 45.2565 59.3992 45.8045 58.041 46.5124Z" fill="#912626"/>
<path d="M58.04 41.4883C55.3719 42.8785 41.5496 48.5621 38.6068 50.0961C35.6643 51.6307 34.0295 51.6156 31.7049 50.5043C29.3801 49.3938 14.6709 43.451 12.0213 42.1852C9.37171 40.9186 9.31605 40.0469 11.919 39.0278C14.5217 38.0082 29.1502 32.269 32.2422 31.1598C35.3336 30.051 36.4061 30.0106 39.0369 30.9746C41.668 31.9383 55.4078 37.4073 58.0078 38.3594C60.6084 39.3127 60.7082 40.0975 58.04 41.4883Z" fill="#C6302B"/>
<path d="M58.041 38.3348C55.3727 39.7257 41.55 45.409 38.6071 46.9437C35.6645 48.4775 34.0297 48.4627 31.705 47.3513C29.3801 46.2405 14.6705 40.2981 12.0208 39.0317C10.6963 38.3987 10 37.8651 10 37.3604V32.3059C10 32.3059 29.1502 28.137 32.2419 27.0278C35.3334 25.9188 36.4061 25.8786 39.037 26.8423C41.6682 27.8062 57.3997 30.6439 60 31.5965C60 31.5965 59.9988 36.1103 59.9988 36.5795C59.9992 37.0789 59.3992 37.627 58.041 38.3348Z" fill="#912626"/>
<path d="M58.04 33.3108C55.3719 34.7014 41.5496 40.3846 38.6068 41.9192C35.6643 43.4531 34.0295 43.4381 31.7049 42.3268C29.3801 41.2162 14.6709 35.2737 12.0213 34.0077C9.37171 32.7414 9.31605 31.8696 11.919 30.85C14.5217 29.8311 29.1502 24.0914 32.2422 22.9825C35.3336 21.8735 36.4061 21.8332 39.0369 22.7971C41.668 23.7608 55.4078 29.2293 58.0078 30.1819C60.6084 31.1348 60.7082 31.9202 58.04 33.3108Z" fill="#C6302B"/>
<path d="M58.041 29.854C55.3727 31.2449 41.55 36.9284 38.6071 38.4631C35.6645 39.9971 34.0297 39.9821 31.705 38.8707C29.3801 37.7599 14.6705 31.8173 12.0208 30.5513C10.6963 29.9181 10 29.3843 10 28.8799V23.8253C10 23.8253 29.1502 19.6566 32.2419 18.5476C35.3334 17.4384 36.4061 17.3983 39.037 18.362C41.6682 19.3259 57.3997 22.1637 60 23.1163C60 23.1163 59.9988 27.6301 59.9988 28.0991C59.9992 28.5981 59.3992 29.1462 58.041 29.854Z" fill="#912626"/>
<path d="M58.04 24.83C55.3719 26.2206 41.5496 31.9042 38.6068 33.4383C35.6643 34.9723 34.0295 34.9573 31.7049 33.8464C29.3803 32.7354 14.6709 26.7932 12.0213 25.527C9.37171 24.2608 9.31605 23.3887 11.919 22.3694C14.5217 21.3503 29.1502 15.6112 32.2422 14.5018C35.3336 13.3927 36.4061 13.3528 39.0369 14.3167C41.668 15.2805 55.4078 20.7491 58.0078 21.7016C60.6084 22.654 60.7082 23.4393 58.04 24.83Z" fill="#C6302B"/>
<path d="M41.11 19.9135L36.8113 20.3598L35.8489 22.6753L34.2944 20.0914L29.3307 19.6453L33.0346 18.3096L31.9233 16.2592L35.391 17.6154L38.6601 16.5451L37.7766 18.6652L41.11 19.9135Z" fill="white"/>
<path d="M35.5921 31.1474L27.5693 27.8199L39.0656 26.0554L35.5921 31.1474Z" fill="white"/>
<path d="M24.4691 21.2005C27.8627 21.2005 30.6136 22.267 30.6136 23.5823C30.6136 24.8978 27.8627 25.9641 24.4691 25.9641C21.0757 25.9641 18.3245 24.8978 18.3245 23.5823C18.3245 22.267 21.0757 21.2005 24.4691 21.2005Z" fill="white"/>
<path d="M46.1904 20.5464L52.9942 23.2352L46.1962 25.9213L46.1904 20.5464Z" fill="#621B1C"/>
<path d="M38.6631 23.524L46.1904 20.5464L46.1962 25.9213L45.4582 26.21L38.6631 23.524Z" fill="#9A2928"/>
</g>
<defs>
<clipPath id="clip0_12_503">
<rect width="70" height="70" fill="white"/>
</clipPath>
</defs>
</svg>
