<svg width="70" height="70" viewBox="0 0 70 70" fill="none" xmlns="http://www.w3.org/2000/svg">
<g clip-path="url(#clip0_19_53)">
<mask id="mask0_19_53" style="mask-type:luminance" maskUnits="userSpaceOnUse" x="0" y="0" width="70" height="70">
<path d="M70 0H0V70H70V0Z" fill="white"/>
</mask>
<g mask="url(#mask0_19_53)">
<mask id="mask1_19_53" style="mask-type:luminance" maskUnits="userSpaceOnUse" x="0" y="0" width="70" height="70">
<path d="M60 0H10C4.47715 0 0 4.47715 0 10V60C0 65.5229 4.47715 70 10 70H60C65.5229 70 70 65.5229 70 60V10C70 4.47715 65.5229 0 60 0Z" fill="white"/>
</mask>
<g mask="url(#mask1_19_53)">
<path d="M60 0H10C4.47715 0 0 4.47715 0 10V60C0 65.5229 4.47715 70 10 70H60C65.5229 70 70 65.5229 70 60V10C70 4.47715 65.5229 0 60 0Z" fill="#1C1212"/>
<path d="M94.8573 -15.5184C94.8573 -15.5184 68.4787 -2.95599 73.1606 28.1212C78.4135 62.967 47.9525 77.9223 27.1408 69.308C6.32913 60.6639 7.7851 28.6895 -31.7828 27.7024C-72.2071 26.7154 -80.7145 -13.5443 -80.7145 -13.5443" stroke="white" stroke-opacity="0.2" stroke-width="2" stroke-miterlimit="10"/>
<path d="M64.3677 -24.8806C64.3677 -24.8806 52.9484 1.68002 57.0308 28.0911C61.1418 54.5021 42.671 57.6128 35.3341 54.5021C20.0894 48.1013 17.1489 13.8237 -7.4597 11.6103C-25.959 9.93532 -50.853 23.1857 -64.0423 -6.87442" stroke="white" stroke-opacity="0.2" stroke-width="2" stroke-miterlimit="10"/>
<path d="M52.0634 -13.0358C52.0634 -13.0358 56.1743 14.0931 37.9891 9.24752C17.1489 3.68416 17.4629 -9.35685 -8.91566 2.9663C-18.308 7.36316 -56.1059 8.64931 -48.4835 -15.5184" stroke="#FBF6F6" stroke-opacity="0.2" stroke-width="2" stroke-miterlimit="10"/>
<path d="M38.8741 45.1403C43.2415 45.1403 46.782 39.6766 46.782 32.9368C46.782 26.197 43.2415 20.7333 38.8741 20.7333C34.5067 20.7333 30.9663 26.197 30.9663 32.9368C30.9663 39.6766 34.5067 45.1403 38.8741 45.1403Z" stroke="white" stroke-opacity="0.2" stroke-width="2" stroke-miterlimit="10"/>
</g>
</g>
<path d="M42.4609 41.4453C40.625 41.4062 39.0234 42.7734 38.8281 44.6094C38.8281 44.6875 38.8672 44.7265 38.9453 44.7265H45.9766C46.0547 44.7265 46.0937 44.6875 46.0937 44.6094C45.9375 42.7344 44.3359 41.3281 42.4609 41.4453Z" fill="#CF0A2C"/>
<path d="M57.5391 17.7734L42.5391 34.5703C42.3828 34.7656 42.0703 34.7656 41.875 34.6094L41.8359 34.5703L34.2578 26.7187C34.1016 26.5625 34.1016 26.3281 34.2188 26.1328L36.7578 22.8906C36.9141 22.6953 37.1875 22.6172 37.3828 22.7734C37.4219 22.8125 37.4609 22.8125 37.4609 22.8516L41.7578 27.5781C41.9141 27.7734 42.2266 27.7734 42.4219 27.6172L42.4609 27.5781L54.4531 11.2891C54.5703 11.1328 54.5312 10.9375 54.375 10.8203C54.3359 10.7812 54.2578 10.7813 54.1797 10.7422H12.2266C12.0312 10.7813 11.875 10.9375 11.875 11.1328V58.8672C11.875 59.0625 12.0312 59.2187 12.2266 59.2187H57.7734C57.9688 59.2187 58.125 59.0625 58.125 58.8672V18.0078C58.125 17.8125 57.9687 17.6953 57.8125 17.6953C57.6953 17.6563 57.6172 17.6953 57.5391 17.7734ZM24.8047 53.9062C21.7969 54.0234 18.8672 53.0078 16.6406 51.0156C16.4844 50.8594 16.4453 50.625 16.6016 50.4297L18.3594 47.9297C18.5156 47.7344 18.7891 47.6953 18.9844 47.8125L19.0234 47.8516C20.6641 49.375 22.7734 50.1953 25 50.1953C27.3438 50.1953 28.4766 49.1016 28.4766 47.9687C28.4766 44.4141 16.9531 46.875 16.9531 39.3359C16.9531 36.0156 19.8438 33.2422 24.5313 33.2422C27.2266 33.1641 29.8828 34.0625 31.9922 35.7812C32.1484 35.9375 32.1875 36.2109 32.0313 36.3672L30.1953 38.7891C30.0391 38.9844 29.7656 39.0234 29.5703 38.8672C28.0078 37.6172 26.0937 36.9531 24.1016 36.9922C22.2656 36.9922 21.25 37.8125 21.25 38.9844C21.25 42.1484 32.7344 40.0391 32.7344 47.5C32.7734 51.1328 30.1563 53.9062 24.8047 53.9062ZM49.9219 46.9531C49.9219 47.1875 49.7266 47.3437 49.5312 47.3437H39.0234C38.9453 47.3437 38.9062 47.3828 38.9062 47.4609C39.2578 49.4922 41.0937 50.8984 43.1641 50.7812C44.4922 50.7422 45.7422 50.3516 46.7969 49.5703C46.9531 49.4531 47.2266 49.4531 47.3437 49.6484L47.3828 49.6875L48.6719 51.5625C48.7891 51.7188 48.75 51.9531 48.5938 52.1094C46.9141 53.3594 44.8437 53.9844 42.7734 53.9062C38.2422 53.9062 34.8437 50.8594 34.8437 46.0938C34.7266 41.9141 38.0078 38.4375 42.1875 38.3203H42.5391C46.9531 38.3203 50 41.6406 50 46.4844L49.9219 46.9531Z" fill="#CF0A2C"/>
</g>
<defs>
<clipPath id="clip0_19_53">
<rect width="70" height="70" fill="white"/>
</clipPath>
</defs>
</svg>
